<svg width="26" height="26" viewBox="0 0 26 26" fill="none" xmlns="http://www.w3.org/2000/svg">
<path d="M18.3867 3.34C18.58 3.33333 19.126 3.32 19.3333 3.33333C20.08 3.33333 21.2267 3.26667 22 3.33333V6.66667H19.3333C18.36 6.66667 18 6.9 18 8V10.6667H21.3333V14H18V23.3333H14.6667V14H12V10.6667H14.6667L14.626 7.72C14.626 5.67933 15.04 4.44 16.726 3.70667C17.16 3.52 17.82 3.35333 18.3867 3.34ZM2 0C0.89543 0 0 0.895431 0 2V24C0 25.1046 0.895431 26 2 26H24C25.1046 26 26 25.1046 26 24V2C26 0.89543 25.1046 0 24 0H2Z" fill="white"/>
</svg>
