<svg width="26" height="26" viewBox="0 0 26 26" fill="none" xmlns="http://www.w3.org/2000/svg">
<g clip-path="url(#clip0)">
<path d="M10.9023 21.4946C9.64297 21.4946 8.61719 22.5204 8.61719 23.7798C8.61719 25.0392 9.64297 26.0649 10.9023 26.0649C12.1617 26.0649 13.1875 25.0392 13.1875 23.7798C13.1875 22.5204 12.1617 21.4946 10.9023 21.4946ZM10.9023 24.7903C10.3437 24.7903 9.8918 24.3384 9.8918 23.7798C9.8918 23.2212 10.3437 22.7692 10.9023 22.7692C11.4609 22.7692 11.9129 23.2212 11.9129 23.7798C11.9129 24.3384 11.4559 24.7903 10.9023 24.7903Z" fill="#667995"/>
<path d="M18.9209 21.4946C17.6615 21.4946 16.6357 22.5204 16.6357 23.7798C16.6357 25.0392 17.6615 26.0649 18.9209 26.0649C20.1803 26.0649 21.2061 25.0392 21.2061 23.7798C21.2111 22.5204 20.1853 21.4946 18.9209 21.4946ZM18.9209 24.7903C18.3623 24.7903 17.9104 24.3384 17.9104 23.7798C17.9104 23.2212 18.3623 22.7692 18.9209 22.7692C19.4795 22.7692 19.9314 23.2212 19.9314 23.7798C19.9314 24.3384 19.4795 24.7903 18.9209 24.7903Z" fill="#667995"/>
<path d="M25.7103 5.57061C25.4665 5.271 25.106 5.09835 24.72 5.09835H4.83917L4.43799 3.14834C4.35167 2.74209 4.07745 2.40186 3.69659 2.23428L0.893462 1.01553C0.568462 0.883501 0.192681 1.03077 0.0504933 1.35577C-0.0916942 1.68077 0.0606495 2.05655 0.380571 2.19366L3.1837 3.41241L6.2712 18.4081C6.39307 18.9972 6.9212 19.4288 7.52042 19.4288H22.8157C23.1661 19.4288 23.4556 19.1444 23.4556 18.789C23.4556 18.4386 23.1712 18.1491 22.8157 18.1491H7.52549L7.14971 16.3261H22.9376C23.5419 16.3261 24.0649 15.8995 24.1868 15.3054L25.9743 6.63702C26.0505 6.26124 25.954 5.87022 25.7103 5.57061ZM22.9376 15.0464H6.88565L5.09815 6.37803H24.72L22.9376 15.0464Z" fill="#667995"/>
</g>
<defs>
<clipPath id="clip0">
<rect width="26" height="26" fill="white"/>
</clipPath>
</defs>
</svg>
