<svg width="26" height="26" viewBox="0 0 26 26" fill="none" xmlns="http://www.w3.org/2000/svg">
<path d="M12.905 14.0095C12.9319 14.0095 12.9588 14.0095 12.9911 14.0095C13.0019 14.0095 13.0127 14.0095 13.0234 14.0095C13.0396 14.0095 13.0611 14.0095 13.0773 14.0095C14.6548 13.9826 15.9309 13.428 16.8731 12.3674C18.946 10.0306 18.6014 6.02485 18.5637 5.64258C18.4291 2.77283 17.0723 1.39988 15.9524 0.759163C15.1179 0.279975 14.1433 0.0215366 13.0558 0H13.0181C13.0127 0 13.0019 0 12.9965 0H12.9642C12.3666 0 11.1928 0.0969145 10.0676 0.737627C8.93689 1.37834 7.55855 2.75129 7.42394 5.64258C7.38626 6.02485 7.04167 10.0306 9.11456 12.3674C10.0514 13.428 11.3274 13.9826 12.905 14.0095ZM8.86151 5.77718C8.86151 5.76103 8.86689 5.74487 8.86689 5.73411C9.04457 1.87368 11.7851 1.4591 12.9588 1.4591H12.9804C12.9911 1.4591 13.0073 1.4591 13.0234 1.4591C14.4772 1.49141 16.9485 2.08366 17.1154 5.73411C17.1154 5.75026 17.1154 5.76641 17.1208 5.77718C17.1262 5.81487 17.503 9.47608 15.7909 11.4036C15.1125 12.1682 14.208 12.545 13.0181 12.5558C13.0073 12.5558 13.0019 12.5558 12.9911 12.5558C12.9804 12.5558 12.975 12.5558 12.9642 12.5558C11.7797 12.545 10.8698 12.1682 10.1968 11.4036C8.49 9.48685 8.85613 5.80948 8.86151 5.77718Z" fill="#667995"/>
<path d="M24.0555 20.6535C24.0555 20.6481 24.0555 20.6427 24.0555 20.6373C24.0555 20.5943 24.0501 20.5512 24.0501 20.5027C24.0178 19.4367 23.9478 16.9438 21.6111 16.147C21.595 16.1416 21.5734 16.1362 21.5573 16.1308C19.129 15.5116 17.11 14.1118 17.0885 14.0956C16.76 13.8641 16.3078 13.9449 16.0762 14.2733C15.8447 14.6017 15.9255 15.054 16.2539 15.2855C16.3454 15.3501 18.4883 16.8415 21.1696 17.5307C22.4241 17.9776 22.5641 19.3182 22.6018 20.5458C22.6018 20.5943 22.6018 20.6374 22.6072 20.6804C22.6126 21.165 22.5803 21.9134 22.4941 22.3441C21.6219 22.8395 18.203 24.5516 13.0019 24.5516C7.82235 24.5516 4.38189 22.8341 3.50427 22.3387C3.41813 21.908 3.38044 21.1596 3.3912 20.675C3.3912 20.632 3.39659 20.5889 3.39659 20.5404C3.43428 19.3129 3.57427 17.9722 4.82877 17.5253C7.51007 16.8361 9.65296 15.3394 9.74449 15.2801C10.0729 15.0486 10.1537 14.5963 9.92216 14.2679C9.69065 13.9395 9.23838 13.8587 8.90995 14.0902C8.88841 14.1064 6.88013 15.5063 4.44111 16.1254C4.41958 16.1308 4.40342 16.1362 4.38727 16.1416C2.05055 16.9438 1.98056 19.4367 1.94826 20.4974C1.94826 20.5458 1.94826 20.5889 1.94287 20.632C1.94287 20.6374 1.94287 20.6427 1.94287 20.6481C1.93749 20.9281 1.9321 22.3657 2.21746 23.0871C2.2713 23.2271 2.36822 23.3456 2.49744 23.4263C2.65896 23.534 6.53016 26 13.0073 26C19.4844 26 23.3556 23.5286 23.5171 23.4263C23.6409 23.3456 23.7432 23.2271 23.7971 23.0871C24.0663 22.371 24.0609 20.9335 24.0555 20.6535Z" fill="#667995"/>
</svg>
