<svg width="26" height="26" viewBox="0 0 26 26" fill="none" xmlns="http://www.w3.org/2000/svg">
<path d="M13 24.5535C12.6298 24.5535 12.273 24.4194 11.9949 24.1758C10.9445 23.2574 9.93188 22.3943 9.03845 21.633L9.03389 21.629C6.41449 19.3969 4.15255 17.4691 2.57873 15.5702C0.819441 13.4473 0 11.4345 0 9.23564C0 7.09926 0.732558 5.12831 2.06259 3.68561C3.40849 2.22585 5.25525 1.42188 7.26329 1.42188C8.76411 1.42188 10.1386 1.89636 11.3484 2.83205C11.959 3.30435 12.5124 3.88239 13 4.55663C13.4878 3.88239 14.041 3.30435 14.6518 2.83205C15.8616 1.89636 17.236 1.42188 18.7369 1.42188C20.7447 1.42188 22.5917 2.22585 23.9376 3.68561C25.2676 5.12831 25.9999 7.09926 25.9999 9.23564C25.9999 11.4345 25.1807 13.4473 23.4214 15.57C21.8476 17.4691 19.5859 19.3967 16.9669 21.6286C16.0718 22.3912 15.0576 23.2556 14.0049 24.1762C13.727 24.4194 13.3699 24.5535 13 24.5535Z" fill="#3C8AC9"/>
</svg>
