<svg width="20" height="20" viewBox="0 0 20 20" fill="none" xmlns="http://www.w3.org/2000/svg">
<path d="M20 16.3335L18.982 15.2966L17.12 17.193V11.2002H15.68V17.193L13.8181 15.2966L12.8 16.3335L16.4 20.0002L20 16.3335Z" fill="#3C8AC9"/>
<path d="M11.5198 18.6743H3.74165V1.2H9.9999L9.99978 5.71446C10.001 6.09299 10.1615 6.45569 10.4463 6.72335C10.7311 6.99101 11.117 7.14188 11.5198 7.14301H16.2671V9.28585H17.5997V5.71446C17.6023 5.62059 17.5833 5.52728 17.544 5.44097C17.5046 5.35465 17.4458 5.27738 17.3717 5.21447L12.0517 0.214526C11.9848 0.144773 11.9026 0.0894921 11.8108 0.0524973C11.7189 0.0155025 11.6196 -0.00232556 11.5198 0.000242883H3.91988C3.51713 0.00137339 3.13121 0.152244 2.84642 0.419906C2.56163 0.687567 2.40111 1.05027 2.3999 1.4288V18.5714C2.40111 18.95 2.56163 19.3127 2.84642 19.5803C3.13121 19.848 3.51713 19.9989 3.91988 20H11.5198V18.6743ZM11.1999 1.2L16.2671 6H11.1999V1.2Z" fill="#3C8AC9"/>
</svg>
