<svg width="29" height="29" viewBox="0 0 29 29" fill="none" xmlns="http://www.w3.org/2000/svg">
<g clip-path="url(#clip0)">
<path d="M20.539 3.71111C20.7538 3.7037 21.3605 3.68889 21.5909 3.7037C22.4205 3.7037 23.6946 3.62963 24.5538 3.7037V7.40741H21.5909C20.5094 7.40741 20.1094 7.66667 20.1094 8.88889V11.8519H23.8131V15.5556H20.1094V25.9259H16.4057V15.5556H13.4427V11.8519H16.4057L16.3605 8.57778C16.3605 6.31037 16.8205 4.93333 18.6938 4.11852C19.176 3.91111 19.9094 3.72593 20.539 3.71111ZM2.10937 0C1.0048 0 0.109375 0.895431 0.109375 2V26.8889C0.109375 27.9935 1.00481 28.8889 2.10938 28.8889H26.9983C28.1028 28.8889 28.9983 27.9935 28.9983 26.8889V2C28.9983 0.895428 28.1028 0 26.9983 0H2.10937Z" fill="#3C8AC9"/>
</g>
<defs>
<clipPath id="clip0">
<rect width="28.8889" height="28.8889" fill="white" transform="translate(0.109375)"/>
</clipPath>
</defs>
</svg>
