<svg width="20" height="20" viewBox="0 0 20 20" fill="none" xmlns="http://www.w3.org/2000/svg">
<path d="M16.0426 20.0001H12.7094C12.3644 20.0001 12.0844 19.7201 12.0844 19.3751V13.9585C12.0844 13.8434 11.991 13.7502 11.876 13.7502H8.12605C8.01116 13.7502 7.91777 13.8434 7.91777 13.9585V19.3751C7.91777 19.7201 7.63778 20.0001 7.29279 20.0001H3.95957C3.15545 20.0001 2.50117 19.3459 2.50117 18.5417V10.8336H1.04292C0.46874 10.8336 0.0012207 10.366 0.0012207 9.79185C0.0012207 9.51613 0.113828 9.24606 0.309594 9.05029L9.56859 0.173832C9.81028 -0.057944 10.1919 -0.057944 10.4336 0.173832L19.6834 9.04022C19.8883 9.24606 20.0008 9.51613 20.0008 9.79185C20.0008 10.366 19.5334 10.8336 18.9593 10.8336H17.5009V18.5417C17.5009 19.3459 16.8467 20.0001 16.0426 20.0001ZM13.3344 18.7501H16.0426C16.156 18.7501 16.2509 18.655 16.2509 18.5417V10.2086C16.2509 9.86357 16.5309 9.58358 16.8759 9.58358H18.4434L10.001 1.49125L1.55881 9.58358H3.12616C3.47115 9.58358 3.75114 9.86357 3.75114 10.2086V18.5417C3.75114 18.655 3.8462 18.7501 3.95957 18.7501H6.6678V13.9585C6.6678 13.1544 7.32193 12.5002 8.12605 12.5002H11.876C12.6802 12.5002 13.3344 13.1544 13.3344 13.9585V18.7501Z" fill="#3C8AC9"/>
</svg>
