<svg width="55" height="55" viewBox="0 0 55 55" fill="none" xmlns="http://www.w3.org/2000/svg">
<path d="M53.2258 46.129V16.8548C53.2258 14.4093 51.2359 12.4194 48.7903 12.4194H46.129C46.129 5.57078 40.5583 0 33.7097 0C26.8611 0 21.2903 5.57078 21.2903 12.4194H6.20968C3.7641 12.4194 1.77419 14.4093 1.77419 16.8548V46.129H0V50.5645C0 53.0101 1.9899 55 4.43548 55H50.5645C53.0101 55 55 53.0101 55 50.5645V46.129H53.2258ZM48.7903 14.1935C50.2574 14.1935 51.4516 15.3878 51.4516 16.8548V46.129H49.6774V17.7419C49.6774 16.7634 48.8817 15.9677 47.9032 15.9677H45.6058C45.7769 15.3929 45.9003 14.7995 45.987 14.1935H48.7903ZM23.58 9.15945L32.9954 13.0829L36.2194 22.7531C35.4128 22.9493 34.5756 23.0645 33.7097 23.0645C27.8396 23.0645 23.0645 18.2894 23.0645 12.4194C23.0645 11.2819 23.2482 10.1873 23.58 9.15945ZM37.9048 22.1995L34.7246 12.6589L41.83 5.55302C43.4019 7.40821 44.3548 9.80311 44.3548 12.4194C44.3548 16.7998 41.6935 20.5683 37.9048 22.1995ZM33.7097 1.77419C36.3259 1.77419 38.7208 2.72713 40.5769 4.29817L33.5031 11.3716L24.2674 7.5243C26.0424 4.11278 29.6051 1.77419 33.7097 1.77419ZM3.54839 16.8548C3.54839 15.3878 4.74259 14.1935 6.20968 14.1935H21.4324C21.519 14.7995 21.6416 15.3929 21.8136 15.9677H7.09677C6.11828 15.9677 5.32258 16.7634 5.32258 17.7419V46.129H3.54839V16.8548ZM53.2258 50.5645C53.2258 52.0316 52.0316 53.2258 50.5645 53.2258H4.43548C2.9684 53.2258 1.77419 52.0316 1.77419 50.5645V47.9032H20.0502C21.3258 49.0502 22.958 49.6774 24.6871 49.6774H30.3138C32.0429 49.6774 33.675 49.0502 34.9507 47.9032H46.129V46.129H34.2295L33.9696 46.3889C32.9928 47.3657 31.6951 47.9032 30.3129 47.9032H24.6862C23.3049 47.9032 22.0063 47.3657 21.0296 46.3889L20.7705 46.129H7.09677V17.7419H22.5057C24.5043 21.931 28.7678 24.8387 33.7097 24.8387C38.6515 24.8387 42.915 21.931 44.9136 17.7419H47.9032V47.9032H53.2258V50.5645Z" fill="#3C8AC9"/>
<path d="M43.4677 37.2581C42.9233 37.2581 42.4165 37.424 41.9942 37.706L38.8993 35.3856C38.9781 35.1344 39.0323 34.8728 39.0323 34.5968C39.0323 33.1297 37.8381 31.9355 36.371 31.9355C34.9039 31.9355 33.7097 33.1297 33.7097 34.5968C33.7097 34.9022 33.7716 35.1911 33.8665 35.4644L28.8982 39.4395C28.4911 39.1857 28.0146 39.0323 27.5 39.0323C26.9031 39.0323 26.3573 39.2372 25.9129 39.5699L22.0878 37.0195C22.141 36.8111 22.1774 36.5963 22.1774 36.371C22.1774 34.9039 20.9832 33.7097 19.5161 33.7097C18.049 33.7097 16.8548 34.9039 16.8548 36.371C16.8548 36.5963 16.8912 36.8111 16.9445 37.0195L13.1193 39.5699C12.6749 39.2363 12.1291 39.0323 11.5323 39.0323C10.0652 39.0323 8.87097 40.2265 8.87097 41.6936C8.87097 43.1607 10.0652 44.3549 11.5323 44.3549C12.9994 44.3549 14.1936 43.1607 14.1936 41.6936C14.1936 41.4684 14.1572 41.2535 14.1039 41.0452L17.9291 38.4948C18.3735 38.8283 18.9192 39.0323 19.5161 39.0323C20.113 39.0323 20.6588 38.8283 21.1032 38.4948L24.9284 41.0452C24.8751 41.2535 24.8387 41.4692 24.8387 41.6936C24.8387 43.1607 26.0329 44.3549 27.5 44.3549C28.9671 44.3549 30.1613 43.1607 30.1613 41.6936C30.1613 41.3882 30.0994 41.0993 30.0045 40.826L34.9728 36.851C35.3799 37.1048 35.8564 37.2581 36.371 37.2581C36.9154 37.2581 37.4222 37.0922 37.8446 36.8102L40.9394 39.1306C40.8606 39.3819 40.8065 39.6435 40.8065 39.9194C40.8065 41.3865 42.0007 42.5807 43.4677 42.5807C44.9348 42.5807 46.129 41.3865 46.129 39.9194C46.129 38.4523 44.9348 37.2581 43.4677 37.2581ZM11.5323 42.5807C11.0437 42.5807 10.6452 42.1822 10.6452 41.6936C10.6452 41.205 11.0437 40.8065 11.5323 40.8065C12.0209 40.8065 12.4194 41.205 12.4194 41.6936C12.4194 42.1822 12.0209 42.5807 11.5323 42.5807ZM19.5161 37.2581C19.0275 37.2581 18.629 36.8596 18.629 36.371C18.629 35.8824 19.0275 35.4839 19.5161 35.4839C20.0047 35.4839 20.4032 35.8824 20.4032 36.371C20.4032 36.8596 20.0047 37.2581 19.5161 37.2581ZM27.5 42.5807C27.0114 42.5807 26.6129 42.1822 26.6129 41.6936C26.6129 41.205 27.0114 40.8065 27.5 40.8065C27.9886 40.8065 28.3871 41.205 28.3871 41.6936C28.3871 42.1822 27.9886 42.5807 27.5 42.5807ZM36.371 35.4839C35.8824 35.4839 35.4839 35.0854 35.4839 34.5968C35.4839 34.1082 35.8824 33.7097 36.371 33.7097C36.8596 33.7097 37.2581 34.1082 37.2581 34.5968C37.2581 35.0854 36.8596 35.4839 36.371 35.4839ZM43.4677 40.8065C42.9791 40.8065 42.5807 40.408 42.5807 39.9194C42.5807 39.4308 42.9791 39.0323 43.4677 39.0323C43.9563 39.0323 44.3548 39.4308 44.3548 39.9194C44.3548 40.408 43.9563 40.8065 43.4677 40.8065Z" fill="#3C8AC9"/>
<path d="M22 21H10V32H22V21ZM20.5 30.4286H11.5V22.5714H20.5V30.4286Z" fill="#3C8AC9"/>
</svg>
