<svg width="55" height="55" viewBox="0 0 55 55" fill="none" xmlns="http://www.w3.org/2000/svg">
<g clip-path="url(#clip0)">
<path d="M24.0623 55.0003C23.4298 55.0003 22.9165 54.487 22.9165 53.8545V44.6878C22.9165 44.0553 23.4298 43.542 24.0623 43.542C24.6948 43.542 25.2082 44.0553 25.2082 44.6878V53.8545C25.2082 54.487 24.6948 55.0003 24.0623 55.0003Z" fill="#3C8AC9"/>
<path d="M30.9373 55.0003C30.3048 55.0003 29.7915 54.487 29.7915 53.8545V44.6878C29.7915 44.0553 30.3048 43.542 30.9373 43.542C31.5698 43.542 32.0832 44.0553 32.0832 44.6878V53.8545C32.0832 54.487 31.5698 55.0003 30.9373 55.0003Z" fill="#3C8AC9"/>
<path d="M51.5625 45.8337H3.4375C1.54229 45.8337 0 44.2914 0 42.3962V12.6045C0 10.7093 1.54229 9.16699 3.4375 9.16699H14.8958C15.5283 9.16699 16.0417 9.68033 16.0417 10.3128C16.0417 10.9453 15.5283 11.4587 14.8958 11.4587H3.4375C2.80729 11.4587 2.29167 11.972 2.29167 12.6045V42.3962C2.29167 43.0287 2.80729 43.542 3.4375 43.542H51.5625C52.1927 43.542 52.7083 43.0287 52.7083 42.3962V12.6045C52.7083 11.972 52.1927 11.4587 51.5625 11.4587H40.1042C39.4717 11.4587 38.9583 10.9453 38.9583 10.3128C38.9583 9.68033 39.4717 9.16699 40.1042 9.16699H51.5625C53.4577 9.16699 55 10.7093 55 12.6045V42.3962C55 44.2914 53.4577 45.8337 51.5625 45.8337Z" fill="#3C8AC9"/>
<path d="M37.8123 55.0006H17.1873C16.5548 55.0006 16.0415 54.4873 16.0415 53.8548C16.0415 53.2223 16.5548 52.709 17.1873 52.709H37.8123C38.4448 52.709 38.9582 53.2223 38.9582 53.8548C38.9582 54.4873 38.4448 55.0006 37.8123 55.0006Z" fill="#3C8AC9"/>
<path d="M37.8123 29.7917H17.1873C16.5548 29.7917 16.0415 29.2783 16.0415 28.6458V25.9623C16.0415 24.4315 16.6373 22.9923 17.719 21.9106L20.6248 19.0048V12.4919C20.6248 9.72585 21.553 6.99647 23.2396 4.80564L26.5923 0.44918C27.0255 -0.11457 27.9765 -0.11457 28.4096 0.44918L31.7623 4.80793C33.4467 6.99647 34.3748 9.72585 34.3748 12.4919V19.0048L37.2807 21.9106C38.3623 22.9923 38.9582 24.4315 38.9582 25.9623V28.6458C38.9582 29.2783 38.4448 29.7917 37.8123 29.7917ZM18.3332 27.5H36.6665V25.9623C36.6665 25.0433 36.309 24.1817 35.6605 23.5308L32.42 20.2904C32.2046 20.075 32.0832 19.784 32.0832 19.4792V12.4919C32.0832 10.2277 31.3246 7.99564 29.9428 6.20356L27.4998 3.02501L25.0569 6.20126C23.675 7.99564 22.9165 10.2277 22.9165 12.4919V19.4792C22.9165 19.784 22.795 20.075 22.5819 20.2904L19.3415 23.5308C18.6907 24.1794 18.3332 25.0433 18.3332 25.9623V27.5Z" fill="#3C8AC9"/>
<path d="M33.2293 34.375C32.5968 34.375 32.0835 33.8617 32.0835 33.2292V28.6458C32.0835 28.0133 32.5968 27.5 33.2293 27.5C33.8618 27.5 34.3752 28.0133 34.3752 28.6458V33.2292C34.3752 33.8617 33.8618 34.375 33.2293 34.375Z" fill="#3C8AC9"/>
<path d="M21.7708 34.375C21.1383 34.375 20.625 33.8617 20.625 33.2292V28.6458C20.625 28.0133 21.1383 27.5 21.7708 27.5C22.4033 27.5 22.9167 28.0133 22.9167 28.6458V33.2292C22.9167 33.8617 22.4033 34.375 21.7708 34.375Z" fill="#3C8AC9"/>
</g>
<defs>
<clipPath id="clip0">
<rect width="55" height="55" fill="white"/>
</clipPath>
</defs>
</svg>
