<svg width="55" height="55" viewBox="0 0 55 55" fill="none" xmlns="http://www.w3.org/2000/svg">
<g clip-path="url(#clip0)">
<path d="M47.6672 3.66667C47.6671 3.66667 47.6669 3.66667 47.6667 3.66667H35.7501V0.916667C35.7502 0.410552 35.34 0.000114607 34.8339 2.3999e-08C34.8338 2.3999e-08 34.8335 2.3999e-08 34.8334 2.3999e-08H20.1667C19.6606 -0.000114559 19.2502 0.410094 19.2501 0.916208C19.2501 0.916323 19.2501 0.916552 19.2501 0.916667V3.66667H7.33341C6.8273 3.66655 6.41686 4.07676 6.41675 4.58287C6.41675 4.58299 6.41675 4.58322 6.41675 4.58333V54.0833C6.41663 54.5895 6.82684 54.9999 7.33296 55C7.33307 55 7.3333 55 7.33341 55H47.6667C48.1729 55.0001 48.5833 54.5899 48.5834 54.0838C48.5834 54.0837 48.5834 54.0835 48.5834 54.0833V4.58333C48.5835 4.07722 48.1733 3.66678 47.6672 3.66667ZM21.0834 1.83333H33.9167V7.33333H21.0834V1.83333ZM46.7501 53.1667H8.25008V5.5H19.2501V8.25C19.25 8.75611 19.6602 9.16655 20.1663 9.16667C20.1664 9.16667 20.1666 9.16667 20.1667 9.16667H34.8334C35.3395 9.16678 35.75 8.75657 35.7501 8.25046C35.7501 8.25034 35.7501 8.25011 35.7501 8.25V5.5H46.7501V53.1667Z" fill="#3C8AC9"/>
<path d="M18.4172 27.333C18.4171 27.333 18.4169 27.333 18.4168 27.333H12.9168C12.4107 27.3329 12.0002 27.7431 12.0001 28.2492C12.0001 28.2493 12.0001 28.2496 12.0001 28.2497V43.833C12 44.3391 12.4102 44.7496 12.9163 44.7497C12.9164 44.7497 12.9167 44.7497 12.9168 44.7497H18.4168C18.9229 44.7498 19.3333 44.3396 19.3335 43.8335C19.3335 43.8334 19.3335 43.8331 19.3335 43.833V28.2497C19.3336 27.7436 18.9234 27.3331 18.4172 27.333ZM17.5001 42.9163H13.8335V29.1663H17.5001V42.9163Z" fill="#3C8AC9"/>
<path d="M29.7507 23.6665C29.7506 23.6665 29.7504 23.6665 29.7503 23.6665H24.2503C23.7442 23.6664 23.3337 24.0766 23.3336 24.5827C23.3336 24.5828 23.3336 24.5831 23.3336 24.5832V43.8332C23.3335 44.3393 23.7437 44.7497 24.2498 44.7498C24.2499 44.7498 24.2502 44.7498 24.2503 44.7498H29.7503C30.2564 44.75 30.6668 44.3397 30.667 43.8336C30.667 43.8335 30.667 43.8333 30.667 43.8332V24.5832C30.6671 24.0771 30.2569 23.6666 29.7507 23.6665ZM28.8336 42.9165H25.167V25.4998H28.8336V42.9165Z" fill="#3C8AC9"/>
<path d="M41.0842 20C41.0841 20 41.0839 20 41.0838 20H35.5838C35.0777 19.9999 34.6672 20.4101 34.6671 20.9162C34.6671 20.9163 34.6671 20.9166 34.6671 20.9167V43.8333C34.667 44.3395 35.0772 44.7499 35.5833 44.75C35.5834 44.75 35.5837 44.75 35.5838 44.75H41.0838C41.5899 44.7501 42.0003 44.3399 42.0005 43.8338C42.0005 43.8337 42.0005 43.8335 42.0005 43.8333V20.9167C42.0006 20.4106 41.5904 20.0001 41.0842 20ZM40.1671 42.9167H36.5004V21.8333H40.1671V42.9167Z" fill="#3C8AC9"/>
<path d="M43.82 9.18481L34.6533 11.0181C34.536 11.0416 34.4244 11.0879 34.3248 11.1543L26.3057 16.5003H18.3332C18.1615 16.5003 17.9931 16.5486 17.8476 16.64L10.5143 21.2233L11.4856 22.7774L18.596 18.3336H26.5832C26.7641 18.3335 26.9411 18.28 27.0917 18.1796L35.191 12.7799L44.1799 10.9823L43.82 9.18481Z" fill="#3C8AC9"/>
</g>
<defs>
<clipPath id="clip0">
<rect width="55" height="55" fill="white" transform="translate(0.00012207)"/>
</clipPath>
</defs>
</svg>
