<svg width="55" height="55" viewBox="0 0 55 55" fill="none" xmlns="http://www.w3.org/2000/svg">
<path d="M43.0435 4.84359V1.19565C43.0435 0.534457 42.5078 0 41.8478 0H1.19565C0.535652 0 0 0.534457 0 1.19565V53.8043C0 54.4655 0.535652 55 1.19565 55H41.8478C42.5078 55 43.0435 54.4655 43.0435 53.8043V44.0825L48.3582 47.6252C48.559 47.7579 48.7898 47.8261 49.0217 47.8261C49.2154 47.8261 49.4091 47.7795 49.5861 47.685C49.9747 47.477 50.2174 47.0716 50.2174 46.6304V28.0727C53.136 25.6587 55 22.0108 55 17.9348C55 11.0861 49.7367 5.44978 43.0435 4.84359ZM2.3913 2.3913H40.6522V4.84359C38.3063 5.05641 36.1386 5.88859 34.3092 7.17391H2.3913V2.3913ZM40.6522 52.6087H2.3913V9.56522H31.7099C30.5657 10.9498 29.7084 12.5747 29.205 14.3478H8.36957C7.70957 14.3478 7.17391 14.8823 7.17391 15.5435V25.1087C7.17391 25.7699 7.70957 26.3043 8.36957 26.3043H31.7099C32.242 26.9476 32.8338 27.5395 33.4783 28.0727V46.6304C33.4783 47.0716 33.721 47.477 34.1096 47.685C34.497 47.893 34.9692 47.8691 35.3363 47.6252L40.6522 44.0825V52.6087ZM30.1472 23.913H9.56522V16.7391H28.7566C28.7208 17.1337 28.6957 17.5307 28.6957 17.9348C28.6957 20.0882 29.2265 22.1172 30.1472 23.913ZM47.8261 44.397L42.5114 40.853C42.4708 40.8255 42.4241 40.8136 42.3811 40.7921C42.3416 40.7717 42.3046 40.7514 42.2627 40.7359C41.9937 40.6354 41.702 40.6354 41.4329 40.7359C41.3911 40.7514 41.354 40.7717 41.3146 40.7921C41.2715 40.8136 41.2249 40.8267 41.1842 40.853L35.8696 44.397V29.6354C37.6654 30.5561 39.6945 31.087 41.8478 31.087C44.0012 31.087 46.0302 30.5561 47.8261 29.6354V44.397ZM41.8478 28.6957C35.915 28.6957 31.087 23.8688 31.087 17.9348C31.087 12.0008 35.915 7.17391 41.8478 7.17391C47.7807 7.17391 52.6087 12.0008 52.6087 17.9348C52.6087 23.8688 47.7807 28.6957 41.8478 28.6957Z" fill="#3C8AC9"/>
<path d="M41.8479 11.9561C38.5515 11.9561 35.8696 14.6379 35.8696 17.9343C35.8696 21.2307 38.5515 23.9126 41.8479 23.9126C45.1443 23.9126 47.8262 21.2307 47.8262 17.9343C47.8262 14.6379 45.1443 11.9561 41.8479 11.9561ZM41.8479 21.5213C39.8703 21.5213 38.2609 19.9119 38.2609 17.9343C38.2609 15.9567 39.8703 14.3474 41.8479 14.3474C43.8255 14.3474 45.4349 15.9567 45.4349 17.9343C45.4349 19.9119 43.8255 21.5213 41.8479 21.5213Z" fill="#3C8AC9"/>
<path d="M27.4999 31.0869H8.36948C7.70948 31.0869 7.17383 31.6214 7.17383 32.2826C7.17383 32.9438 7.70948 33.4782 8.36948 33.4782H27.4999C28.1599 33.4782 28.6956 32.9438 28.6956 32.2826C28.6956 31.6214 28.1599 31.0869 27.4999 31.0869Z" fill="#3C8AC9"/>
<path d="M27.4999 38.2607H8.36948C7.70948 38.2607 7.17383 38.7952 7.17383 39.4564C7.17383 40.1176 7.70948 40.652 8.36948 40.652H27.4999C28.1599 40.652 28.6956 40.1176 28.6956 39.4564C28.6956 38.7952 28.1599 38.2607 27.4999 38.2607Z" fill="#3C8AC9"/>
<path d="M27.4999 45.4346H8.36948C7.70948 45.4346 7.17383 45.969 7.17383 46.6302C7.17383 47.2914 7.70948 47.8259 8.36948 47.8259H27.4999C28.1599 47.8259 28.6956 47.2914 28.6956 46.6302C28.6956 45.969 28.1599 45.4346 27.4999 45.4346Z" fill="#3C8AC9"/>
</svg>
