<svg width="20" height="20" viewBox="0 0 20 20" fill="none" xmlns="http://www.w3.org/2000/svg">
<path d="M19.9217 0.531641C19.9178 0.281641 19.7147 0.0824227 19.4647 0.0785165C17.5663 0.0433602 15.5155 0.508204 13.5272 1.41836C11.5428 2.32852 9.7733 3.61367 8.41002 5.14102C5.74986 5.19961 3.13658 6.3168 1.24205 8.21133C1.11705 8.33633 1.07017 8.51992 1.12486 8.68789C1.17955 8.85586 1.32408 8.97695 1.49986 9.0043L4.57017 9.4457L4.24595 9.80898C4.08189 9.99258 4.0897 10.2738 4.26549 10.4496L9.55455 15.7387C9.64439 15.8246 9.76158 15.8754 9.88267 15.8754C9.99595 15.8754 10.1092 15.8324 10.1913 15.7582L10.5545 15.434L10.996 18.5043C11.0194 18.6684 11.1444 18.8051 11.3241 18.8676C11.367 18.8832 11.41 18.8871 11.4569 18.8871C11.5858 18.8871 11.7225 18.8324 11.8124 18.7387C13.6913 16.8598 14.7967 14.2582 14.8553 11.598C16.3905 10.227 17.6795 8.45742 18.5897 6.47695C19.5077 4.47695 19.9686 2.42617 19.9217 0.531641ZM13.867 12.473C13.6522 14.2738 12.9335 15.9652 11.7811 17.3793L11.3944 14.6801L13.867 12.473ZM7.5272 6.1332L5.32017 8.60586L2.61705 8.21914C4.00377 7.08242 5.73814 6.34805 7.5272 6.1332ZM5.80064 9.46914C5.8397 9.43789 5.87486 9.39883 5.9022 9.35586L8.91392 5.98086L8.94517 5.9457C8.96861 5.92227 8.99205 5.89883 9.00767 5.87149C11.5272 2.98867 15.4413 1.08633 18.992 1.0082C18.9139 4.56289 17.0038 8.48086 14.121 11.0004C14.1014 11.016 14.0819 11.0316 14.0663 11.0473L14.0467 11.0668C14.035 11.0746 14.0272 11.0824 14.0155 11.0941L10.6483 14.102C10.6053 14.1293 10.5702 14.1605 10.535 14.2035L9.90611 14.766L5.23814 10.098L5.80064 9.46914Z" fill="#3C8AC9"/>
<path d="M14.2234 7.8872C14.7898 7.8872 15.3171 7.66845 15.7156 7.27001C16.5398 6.4458 16.5398 5.10595 15.7156 4.28564C15.3171 3.88721 14.7859 3.66846 14.2234 3.66846C13.657 3.66846 13.1296 3.88721 12.7312 4.28564C11.907 5.10986 11.907 6.4497 12.7312 7.27001C13.1296 7.66845 13.6609 7.8872 14.2234 7.8872ZM13.3914 4.94189C13.614 4.71924 13.9109 4.59814 14.2273 4.59814C14.5398 4.59814 14.8367 4.71924 15.0632 4.94189C15.5242 5.40283 15.5242 6.14892 15.0632 6.60986C14.6023 7.06689 13.8562 7.06689 13.3953 6.60986C12.9304 6.15283 12.9304 5.40283 13.3914 4.94189Z" fill="#3C8AC9"/>
<path d="M4.16721 13.2388C3.4719 13.2388 2.81955 13.5083 2.33127 14.0005C1.44065 14.8833 0.22971 18.8755 0.0929911 19.3286C0.0422099 19.4927 0.0890849 19.6724 0.210179 19.7935C0.300022 19.8794 0.41721 19.9302 0.538304 19.9302C0.581272 19.9302 0.624241 19.9224 0.671116 19.9106C1.12424 19.7739 5.11252 18.5591 5.99924 17.6724C7.01096 16.6606 7.01096 15.0122 5.99924 14.0005C5.51487 13.5083 4.86252 13.2388 4.16721 13.2388ZM5.83127 15.8325C5.83127 16.2778 5.6594 16.6958 5.34299 17.0083C4.89377 17.4575 2.88205 18.2192 1.24924 18.7466C1.78049 17.1138 2.5383 15.1021 2.98752 14.6528C3.30393 14.3403 3.7219 14.1646 4.16721 14.1646C4.61252 14.1646 5.03049 14.3364 5.34299 14.6528C5.65549 14.9692 5.83127 15.3872 5.83127 15.8325Z" fill="#3C8AC9"/>
</svg>
