<svg width="26" height="26" viewBox="0 0 26 26" fill="none" xmlns="http://www.w3.org/2000/svg">
<path d="M19.6842 14.8947H22.2105V18.6842H26V21.2105H22.2105V25H19.6842V21.2105H15.8947V18.6842H19.6842V14.8947ZM4.52632 1H22.2105C23.6126 1 24.7368 2.12421 24.7368 3.52632V13.3789C23.9663 12.9368 23.12 12.6211 22.2105 12.4695V3.52632H4.52632V21.2105H13.4695C13.6211 22.12 13.9368 22.9663 14.3789 23.7368H4.52632C3.12421 23.7368 2 22.6126 2 21.2105V3.52632C2 2.12421 3.12421 1 4.52632 1ZM7.05263 6.05263H19.6842V8.57895H7.05263V6.05263ZM7.05263 11.1053H19.6842V12.4695C18.6105 12.6463 17.6253 13.0505 16.7537 13.6316H7.05263V11.1053ZM7.05263 16.1579H13.3684V18.6842H7.05263V16.1579Z" fill="#3C8AC9"/>
</svg>
