<svg width="58" height="58" viewBox="0 0 58 58" fill="none" xmlns="http://www.w3.org/2000/svg">
<g clip-path="url(#clip0)">
<path d="M51.5559 -0.000324383H6.44477C4.7356 -0.000324383 1.89964 -0.518416 0.691075 0.690152C-0.517493 1.89872 0.000323713 4.73495 0.000323713 6.44412V51.5552C0.000323713 53.2644 -0.517577 56.1006 0.690991 57.3092C1.89956 58.5178 4.7356 57.9997 6.44477 57.9997H51.5559C53.2651 57.9997 56.1016 58.5178 57.3101 57.3092C58.5187 56.1006 58.0003 53.2644 58.0003 51.5552V6.44412C58.0003 4.73495 58.5187 1.89872 57.3101 0.690152C56.1016 -0.518416 53.2651 -0.000324383 51.5559 -0.000324383ZM55.2387 2.76143V55.2376H2.7625V2.76143H55.2387ZM22.0958 43.4995L9.66699 32.2219L11.7387 29.69L22.0958 38.6662L45.572 16.571L48.3339 19.3329" fill="#3C8AC9"/>
</g>
<defs>
<clipPath id="clip0">
<rect width="58" height="58" fill="white"/>
</clipPath>
</defs>
</svg>
