<svg width="20" height="20" viewBox="0 0 20 20" fill="none" xmlns="http://www.w3.org/2000/svg">
<path d="M9.92709 10.7766C9.9478 10.7766 9.96851 10.7766 9.99336 10.7766C10.0016 10.7766 10.0099 10.7766 10.0182 10.7766C10.0306 10.7766 10.0472 10.7766 10.0596 10.7766C11.2731 10.7559 12.2547 10.3293 12.9795 9.51336C14.574 7.71588 14.309 4.6345 14.28 4.34044C14.1764 2.13295 13.1327 1.07683 12.2713 0.583972C11.6293 0.215366 10.8797 0.0165666 10.0431 0H10.0141C10.0099 0 10.0016 0 9.9975 0H9.97265C9.51293 0 8.61005 0.0745496 7.74444 0.567405C6.8747 1.06026 5.81444 2.11638 5.7109 4.34044C5.6819 4.6345 5.41684 7.71588 7.01137 9.51336C7.73202 10.3293 8.71359 10.7559 9.92709 10.7766ZM6.81672 4.44398C6.81672 4.43156 6.82086 4.41913 6.82086 4.41085C6.95753 1.44129 9.06563 1.12239 9.96851 1.12239H9.98507C9.99336 1.12239 10.0058 1.12239 10.0182 1.12239C11.1365 1.14724 13.0375 1.60282 13.1659 4.41085C13.1659 4.42328 13.1659 4.4357 13.17 4.44398C13.1741 4.47298 13.4641 7.28929 12.147 8.772C11.6252 9.36012 10.9294 9.65003 10.0141 9.65831C10.0058 9.65831 10.0016 9.65831 9.99336 9.65831C9.98507 9.65831 9.98093 9.65831 9.97265 9.65831C9.06149 9.65003 8.36155 9.36012 7.84384 8.772C6.53094 7.29758 6.81257 4.46883 6.81672 4.44398Z" fill="#3C8AC9"/>
<path d="M18.5043 15.8877C18.5043 15.8835 18.5043 15.8794 18.5043 15.8753C18.5043 15.8421 18.5001 15.809 18.5001 15.7717C18.4753 14.9517 18.4214 13.0341 16.624 12.4211C16.6115 12.417 16.595 12.4128 16.5825 12.4087C14.7147 11.9324 13.1615 10.8556 13.145 10.8432C12.8923 10.6651 12.5444 10.7272 12.3664 10.9798C12.1883 11.2325 12.2504 11.5804 12.503 11.7585C12.5734 11.8082 14.2218 12.9554 16.2843 13.4855C17.2494 13.8293 17.357 14.8606 17.386 15.8049C17.386 15.8421 17.386 15.8753 17.3902 15.9084C17.3943 16.2811 17.3695 16.8568 17.3032 17.1882C16.6322 17.5692 14.0023 18.8862 10.0015 18.8862C6.01721 18.8862 3.3707 17.565 2.69561 17.184C2.62935 16.8527 2.60035 16.277 2.60864 15.9042C2.60864 15.8711 2.61278 15.838 2.61278 15.8007C2.64177 14.8564 2.74945 13.8251 3.71446 13.4814C5.777 12.9513 7.42537 11.7999 7.49578 11.7543C7.74842 11.5762 7.81054 11.2283 7.63245 10.9757C7.45436 10.7231 7.10646 10.6609 6.85382 10.839C6.83726 10.8514 5.29242 11.9283 3.41626 12.4046C3.39969 12.4087 3.38727 12.4128 3.37484 12.417C1.57737 13.0341 1.52353 14.9517 1.49868 15.7676C1.49868 15.8049 1.49868 15.838 1.49454 15.8711C1.49454 15.8753 1.49454 15.8794 1.49454 15.8835C1.49039 16.0989 1.48625 17.2047 1.70576 17.7597C1.74718 17.8674 1.82173 17.9585 1.92112 18.0206C2.04537 18.1035 5.02322 20.0003 10.0056 20.0003C14.988 20.0003 17.9659 18.0993 18.0901 18.0206C18.1854 17.9585 18.2641 17.8674 18.3055 17.7597C18.5126 17.2089 18.5084 16.103 18.5043 15.8877Z" fill="#3C8AC9"/>
</svg>
