<svg width="169" height="61" viewBox="0 0 169 61" fill="none" xmlns="http://www.w3.org/2000/svg">
<g clip-path="url(#clip0)">
<path d="M80.3825 34.8241C80.1726 36.0034 79.6127 36.9052 78.8663 37.5295C78.0965 38.1308 76.9768 38.547 75.414 38.7088C73.5945 38.8938 71.2152 38.9863 68.2294 38.9863C64.9171 38.9863 62.4678 38.8013 60.9049 38.4545C59.2721 38.0845 58.1524 37.4139 57.4526 36.3965C56.7528 35.4253 56.2863 34.0148 56.0764 32.0724C55.9364 30.4075 55.8198 27.3552 55.8198 22.8923C55.8198 19.2619 55.9364 16.2327 56.0764 13.8047C56.333 11.8161 56.7762 10.3825 57.4526 9.52688C58.1758 8.44008 59.3421 7.76949 60.9049 7.39951C62.4911 7.02954 64.9637 6.86767 68.2294 6.86767C71.0986 6.86767 73.3379 6.98329 75.0174 7.14515C76.5336 7.39951 77.63 7.83886 78.2831 8.39383C78.9829 9.11066 79.3795 9.87374 79.5194 10.6137C79.6594 11.3305 79.8927 13.0185 80.1726 15.6778H84.8612C84.6746 12.7642 84.418 10.6368 84.0681 9.20315C83.7415 7.72324 83.0417 6.49769 81.9687 5.57275C80.9423 4.64781 79.4028 3.9541 77.2568 3.561C75.2274 3.1679 72.2416 2.98291 68.2528 2.98291C63.8907 2.98291 60.7417 3.19102 58.7822 3.63037C56.6829 4.00035 55.05 4.85592 53.9303 6.17396C52.7407 7.46889 51.9709 9.36502 51.5744 11.8855C51.1778 14.406 50.9912 18.0826 50.9912 22.8461C51.0612 27.6558 51.2478 31.2862 51.5744 33.7835C51.9709 36.3271 52.7407 38.2464 53.907 39.5413C55.0967 40.8362 56.7295 41.6918 58.8755 42.0849C60.8816 42.5242 64.0307 42.7323 68.2761 42.7323C72.2649 42.7323 75.3907 42.5474 77.6766 42.2005C79.776 41.8305 81.4089 41.2293 82.6218 40.2581C83.7415 39.3563 84.4646 38.0383 84.9078 36.3271C85.2811 34.6391 85.491 32.2574 85.491 29.2051H80.8024C80.7557 31.5868 80.6391 33.4598 80.3825 34.8241Z" fill="#FF664E"/>
<path d="M124.4 23.6325C123.536 22.9156 122.16 22.2913 120.201 21.8057C121.834 21.297 123 20.6264 123.723 19.8171C124.563 19.054 125.076 18.1522 125.286 17.0191C125.543 15.8629 125.683 14.4987 125.683 12.88C125.683 10.4752 125.286 8.53278 124.563 7.05287C123.77 5.64233 122.557 4.64802 121.017 4.06993C119.454 3.49184 117.308 3.21436 114.626 3.21436H109.727H93.8652V42.3857H109.727H115.862C118.591 42.3857 120.807 41.9463 122.51 41.0908C124.143 40.1658 125.309 38.894 125.962 37.2754C126.616 35.6567 126.942 33.5756 126.942 31.1245C126.942 29.2515 126.756 27.7485 126.406 26.5923C126.032 25.3899 125.379 24.4187 124.4 23.6325ZM98.6472 7.05287H109.704H114.089C115.792 7.05287 117.168 7.23786 118.195 7.58471C119.128 7.97781 119.828 8.62527 120.201 9.45772C120.597 10.3595 120.784 11.6082 120.784 13.2269C120.784 15.123 120.527 16.6029 120.014 17.5741C119.478 18.5915 118.638 19.2621 117.472 19.7015C116.305 20.0946 114.602 20.2796 112.363 20.2796H109.704H98.6472V7.05287ZM121.017 36.2348C120.434 37.2523 119.454 37.8535 118.125 38.1078C116.865 38.3853 114.789 38.5009 111.967 38.5009H109.727H98.6705V24.1181H109.727H113.973C116.259 24.1181 117.915 24.3262 118.988 24.6962C120.107 25.1355 120.877 25.8061 121.344 26.7542C121.81 27.6791 122.044 29.2053 122.044 31.3557C121.997 33.5294 121.67 35.148 121.017 36.2348Z" fill="#FF664E"/>
<path d="M133.171 3.21436V7.12224H147.33V42.3857H152.229V7.12224H166.201V3.21436H133.171Z" fill="#FF664E"/>
<path d="M3.5456 31.4019H11.5466C12.4796 31.4019 13.2494 32.1881 13.2494 33.113V41.0675C13.2494 41.9925 12.4796 42.7787 11.5466 42.7787H3.5456C2.61255 42.7787 1.84277 41.9925 1.84277 41.0675V33.113C1.84277 32.1881 2.58922 31.4019 3.5456 31.4019Z" fill="#3C8ACA"/>
<path d="M17.821 31.4019H25.822C26.755 31.4019 27.5248 32.1881 27.5248 33.113V41.0675C27.5248 41.9925 26.755 42.7787 25.822 42.7787H17.821C16.8879 42.7787 16.1182 41.9925 16.1182 41.0675V33.113C16.1182 32.1881 16.8879 31.4019 17.821 31.4019Z" fill="#3C8ACA"/>
<path d="M17.821 17.2734H25.822C26.755 17.2734 27.5248 18.0365 27.5248 18.9615V26.9391C27.5248 27.864 26.755 28.6271 25.822 28.6271H17.821C16.8879 28.6271 16.1182 27.864 16.1182 26.9391V18.9615C16.1182 18.0134 16.8879 17.2734 17.821 17.2734Z" fill="#3C8ACA"/>
<path d="M32.1207 31.4019H40.0983C41.0314 31.4019 41.8245 32.1881 41.8245 33.113V41.0675C41.8245 41.9925 41.0314 42.7787 40.0983 42.7787H32.1207C31.1876 42.7787 30.3945 41.9925 30.3945 41.0675V33.113C30.3945 32.1881 31.1643 31.4019 32.1207 31.4019Z" fill="#3C8ACA"/>
<path d="M32.1207 17.2734H40.0983C41.0314 17.2734 41.8245 18.0365 41.8245 18.9615V26.9391C41.8245 27.864 41.0314 28.6271 40.0983 28.6271H32.1207C31.1876 28.6271 30.3945 27.864 30.3945 26.9391V18.9615C30.3945 18.0134 31.1643 17.2734 32.1207 17.2734Z" fill="#3C8ACA"/>
<path d="M32.1207 3.09863H40.0983C41.0314 3.09863 41.8245 3.86171 41.8245 4.78665V12.7643C41.8245 13.6892 41.0314 14.4523 40.0983 14.4523H32.1207C31.1876 14.4523 30.3945 13.6892 30.3945 12.7643V4.78665C30.3945 3.86171 31.1643 3.09863 32.1207 3.09863Z" fill="#FF664E"/>
<path d="M38.2322 14.4523L30.3945 4.78665C30.3945 3.86171 31.1876 3.09863 32.1207 3.09863H40.0983C41.0314 3.09863 41.8245 3.86171 41.8245 4.78665V12.7643C41.8245 13.6892 41.0314 14.4523 40.0983 14.4523" fill="url(#paint0_linear)"/>
<path d="M38.2322 28.604L30.3945 18.9615C30.3945 18.0365 31.1876 17.2734 32.1207 17.2734H40.0983C41.0314 17.2734 41.8245 18.0365 41.8245 18.9615V26.9391C41.8245 27.864 41.0314 28.6271 40.0983 28.6271" fill="url(#paint1_linear)"/>
<path d="M23.9558 28.5806L16.1182 18.938C16.1182 18.0131 16.9113 17.25 17.8443 17.25H25.822C26.755 17.25 27.5481 18.0131 27.5481 18.938V26.9157C27.5481 27.8406 26.755 28.6037 25.822 28.6037" fill="url(#paint2_linear)"/>
<path d="M38.2322 42.7555L30.3945 33.0899C30.3945 32.1649 31.1876 31.4019 32.1207 31.4019H40.0983C41.0314 31.4019 41.8245 32.1649 41.8245 33.0899V41.0675C41.8245 41.9925 41.0314 42.7555 40.0983 42.7555" fill="url(#paint3_linear)"/>
<path d="M23.9557 42.8018L16.0947 33.1592C16.0947 32.2343 16.8878 31.4712 17.8209 31.4712H25.7985C26.7316 31.4712 27.5247 32.2343 27.5247 33.1592V41.1369C27.5247 42.0618 26.7316 42.8249 25.7985 42.8249" fill="url(#paint4_linear)"/>
<path d="M9.65702 42.8018L1.81934 33.1592C1.81934 32.2343 2.61243 31.4712 3.54549 31.4712H11.5231C12.4562 31.4712 13.2493 32.2343 13.2493 33.1592V41.1369C13.2493 42.0618 12.4562 42.8249 11.5231 42.8249" fill="url(#paint5_linear)"/>
<path d="M6.39234 56.7219C6.41567 57.3 6.22905 57.7394 5.85583 58.0631C5.48261 58.3868 4.99275 58.5718 4.36294 58.5718C3.73313 58.5718 3.21994 58.3637 2.8234 57.9243C2.42685 57.5081 2.24023 56.9532 2.24023 56.3057V55.2651C2.24023 54.6177 2.42685 54.0627 2.8234 53.6465C3.21994 53.2303 3.7098 52.999 4.33961 52.999C4.99275 52.999 5.48261 53.1609 5.85583 53.4846C6.22905 53.8084 6.39234 54.2477 6.39234 54.8258V54.8489H5.50593C5.50593 54.4789 5.41263 54.2015 5.20269 54.0165C5.01608 53.8315 4.71284 53.739 4.33961 53.739C3.96639 53.739 3.68647 53.8777 3.45321 54.1783C3.24327 54.4789 3.12664 54.8258 3.12664 55.2883V56.3288C3.12664 56.7682 3.24327 57.1381 3.45321 57.4388C3.66315 57.7394 3.96639 57.8781 4.36294 57.8781C4.73616 57.8781 5.01608 57.7856 5.20269 57.5775C5.3893 57.3925 5.48261 57.115 5.48261 56.745L6.39234 56.7219Z" fill="#3C8ACA"/>
<path d="M11.1262 56.0518H8.98015V57.7629H11.4994V58.4798H8.09375V53.0688H11.4994V53.7857H9.00348V55.3118H11.1495L11.1262 56.0518Z" fill="#3C8ACA"/>
<path d="M17.4016 58.4795H16.4918L14.0659 54.5716H14.0425V58.4563H13.1328V53.0454H14.0425L16.4685 56.9533H16.4918V53.0685H17.4016V58.4795Z" fill="#3C8ACA"/>
<path d="M23.0472 53.8086H21.3677V58.5027H20.4579V53.8086H18.8018V53.0918H23.0472V53.8086Z" fill="#3C8ACA"/>
<path d="M27.5724 56.0518H25.4263V57.7629H27.9456V58.4798H24.5166V53.0688H27.9223V53.7857H25.4263V55.3118H27.5724V56.0518Z" fill="#3C8ACA"/>
<path d="M30.4879 56.2368V58.4798H29.5781V53.0688H31.4442C32.0507 53.0688 32.5173 53.2076 32.8438 53.4851C33.1704 53.7626 33.3337 54.1557 33.3337 54.6413C33.3337 54.9187 33.2637 55.1731 33.1237 55.3581C32.9838 55.5431 32.7739 55.7281 32.4939 55.8437C32.7972 55.9362 33.0304 56.098 33.1704 56.3062C33.3104 56.5143 33.3803 56.7917 33.3803 57.1155V57.5548C33.3803 57.7167 33.4037 57.8786 33.4503 58.0173C33.497 58.156 33.567 58.2948 33.6603 58.3641V58.4566H32.7272C32.6339 58.3642 32.5639 58.2485 32.5406 58.0635C32.5173 57.8786 32.4939 57.7167 32.4939 57.5548V57.1155C32.4939 56.838 32.424 56.6068 32.2607 56.4449C32.0974 56.283 31.8874 56.1905 31.6075 56.1905H30.4879V56.2368ZM30.4879 55.5199H31.3976C31.7708 55.5199 32.0274 55.4506 32.1907 55.3118C32.354 55.1731 32.4473 54.965 32.4473 54.6875C32.4473 54.41 32.354 54.2019 32.1907 54.04C32.0274 53.8782 31.7708 53.8088 31.4442 53.8088H30.4879V55.5199Z" fill="#3C8ACA"/>
<path d="M42.2444 56.2595C42.2444 56.93 42.0345 57.4619 41.6146 57.9012C41.1947 58.3406 40.6582 58.5487 39.9817 58.5487C39.3286 58.5487 38.7921 58.3406 38.3956 57.9012C37.9757 57.4619 37.7891 56.93 37.7891 56.2595V55.2883C37.7891 54.6408 37.999 54.0858 38.3956 53.6465C38.7921 53.2071 39.3286 52.999 39.9817 52.999C40.6582 52.999 41.1947 53.2071 41.6146 53.6465C42.0345 54.0858 42.2444 54.6408 42.2444 55.2883V56.2595ZM41.3347 55.2883C41.3347 54.8489 41.218 54.4789 40.9615 54.1783C40.7049 53.8777 40.4016 53.739 39.9817 53.739C39.5852 53.739 39.2586 53.8777 39.0254 54.1783C38.7921 54.4789 38.6755 54.8489 38.6755 55.2883V56.2595C38.6755 56.7219 38.7921 57.0919 39.0254 57.3694C39.2586 57.67 39.5852 57.8087 39.9817 57.8087C40.4016 57.8087 40.7282 57.67 40.9615 57.3694C41.1947 57.0688 41.3114 56.6988 41.3114 56.2363V55.2883H41.3347Z" fill="#3C8ACA"/>
<path d="M47.119 56.1904H44.9263V58.5027H44.0166V53.0918H47.5156V53.8086H44.9263V55.4504H47.119V56.1904Z" fill="#3C8ACA"/>
<path d="M51.7852 58.4798V53.0688H53.5813C54.1878 53.0688 54.6543 53.1845 55.0042 53.4388C55.3541 53.6932 55.5174 54.0632 55.5174 54.5488C55.5174 54.78 55.4474 55.0112 55.3074 55.1962C55.1675 55.3812 54.9809 55.5431 54.7476 55.6356C55.0975 55.6818 55.3774 55.8437 55.564 56.0749C55.7506 56.3062 55.8439 56.6068 55.8439 56.9305C55.8439 57.4392 55.6807 57.8323 55.3308 58.0867C54.9809 58.341 54.5377 58.4798 53.9545 58.4798H51.7852ZM52.6949 55.3581H53.6746C53.9545 55.3581 54.1878 55.2887 54.3511 55.15C54.5143 55.0112 54.6077 54.8262 54.6077 54.595C54.6077 54.3175 54.5143 54.1325 54.3511 53.9938C54.1878 53.855 53.9312 53.8088 53.6046 53.8088H52.7182L52.6949 55.3581ZM52.6949 56.0287V57.7629H53.9312C54.2344 57.7629 54.491 57.6936 54.6543 57.5548C54.8176 57.4161 54.9109 57.208 54.9109 56.9305C54.9109 56.653 54.8176 56.4449 54.6543 56.283C54.491 56.1212 54.2578 56.0287 53.9545 56.0287H53.8845H52.6949Z" fill="#3C8ACA"/>
<path d="M65.3839 57.0919C65.3839 56.8607 65.3139 56.6757 65.1506 56.5369C64.9873 56.3982 64.7074 56.2595 64.2875 56.1438C63.7044 55.982 63.2378 55.7739 62.9346 55.5195C62.608 55.2651 62.4681 54.9183 62.4681 54.5021C62.4681 54.0627 62.6314 53.7159 62.9813 53.4152C63.3312 53.1378 63.7744 52.999 64.3342 52.999C64.9174 52.999 65.3839 53.1609 65.7571 53.4615C66.107 53.7852 66.2703 54.1552 66.2703 54.6177V54.6408H65.3839C65.3839 54.3633 65.2906 54.1321 65.104 53.9702C64.9174 53.8083 64.6608 53.7159 64.3342 53.7159C64.0309 53.7159 63.7977 53.7852 63.6344 53.924C63.4711 54.0627 63.3778 54.2477 63.3778 54.4789C63.3778 54.687 63.4711 54.8489 63.6577 54.9877C63.8443 55.1264 64.1476 55.242 64.5675 55.3808C65.1506 55.5426 65.5705 55.7507 65.8737 56.0282C66.177 56.3057 66.3169 56.6526 66.3169 57.0688C66.3169 57.5081 66.1303 57.8781 65.7804 58.1325C65.4305 58.4099 64.964 58.5256 64.3808 58.5256C63.821 58.5256 63.3545 58.3868 62.9346 58.0862C62.5147 57.7856 62.3281 57.3925 62.3281 56.8607V56.8375H63.2145C63.2145 57.1613 63.3312 57.4156 63.5644 57.5775C63.7977 57.7394 64.0543 57.8319 64.3808 57.8319C64.7074 57.8319 64.964 57.7625 65.1273 57.6237C65.2906 57.5081 65.3839 57.3231 65.3839 57.0919Z" fill="#3C8ACA"/>
<path d="M68.9996 58.4798H68.0898V53.0688H68.9996V58.4798Z" fill="#3C8ACA"/>
<path d="M75.298 58.4795H74.3883L71.9624 54.5716H71.939V58.4563H71.0293V53.0454H71.939L74.365 56.9533H74.3883V53.0685H75.298V58.4795Z" fill="#3C8ACA"/>
<path d="M80.2901 56.0518H78.1441V57.7629H80.6634V58.4798H77.2344V53.0688H80.64V53.7857H78.1441V55.3118H80.2901V56.0518Z" fill="#3C8ACA"/>
<path d="M85.1641 57.0919C85.1641 56.8607 85.0941 56.6757 84.9308 56.5369C84.7675 56.3982 84.4876 56.2595 84.0677 56.1438C83.4845 55.982 83.018 55.7739 82.7148 55.5195C82.3882 55.2651 82.2482 54.9183 82.2482 54.5021C82.2482 54.0627 82.4115 53.7159 82.7614 53.4152C83.1113 53.1378 83.5545 52.999 84.1144 52.999C84.6975 52.999 85.1641 53.1609 85.5373 53.4615C85.8872 53.7852 86.0505 54.1552 86.0505 54.6177V54.6408H85.1407C85.1407 54.3633 85.0474 54.1321 84.8608 53.9702C84.6742 53.8083 84.4176 53.7159 84.091 53.7159C83.7878 53.7159 83.5545 53.7852 83.3912 53.924C83.228 54.0627 83.1347 54.2477 83.1347 54.4789C83.1347 54.687 83.228 54.8489 83.4146 54.9877C83.6012 55.1264 83.9044 55.242 84.3243 55.3808C84.9075 55.5426 85.3273 55.7507 85.6306 56.0282C85.9338 56.3057 86.0738 56.6526 86.0738 57.0688C86.0738 57.5081 85.8872 57.8781 85.5373 58.1325C85.1874 58.4099 84.7209 58.5256 84.1377 58.5256C83.5779 58.5256 83.1113 58.3868 82.6914 58.0862C82.2716 57.7856 82.085 57.3925 82.085 56.8607V56.8375H82.9714C82.9714 57.1613 83.088 57.4156 83.3213 57.5775C83.5545 57.7394 83.8111 57.8319 84.1377 57.8319C84.4643 57.8319 84.7208 57.7625 84.8841 57.6237C85.0707 57.5081 85.1641 57.3231 85.1641 57.0919Z" fill="#3C8ACA"/>
<path d="M90.67 57.0919C90.67 56.8607 90.6001 56.6757 90.4368 56.5369C90.2735 56.3982 89.9936 56.2595 89.5737 56.1438C88.9905 55.982 88.524 55.7739 88.2208 55.5195C87.9175 55.2651 87.7542 54.9183 87.7542 54.5021C87.7542 54.0627 87.9175 53.7159 88.2674 53.4152C88.6173 53.1146 89.0605 52.999 89.6203 52.999C90.2035 52.999 90.67 53.1609 91.0433 53.4615C91.3932 53.7852 91.5564 54.1552 91.5564 54.6177V54.6408H90.67C90.67 54.3633 90.5767 54.1321 90.3901 53.9702C90.2035 53.8083 89.9469 53.7159 89.6203 53.7159C89.3171 53.7159 89.0838 53.7852 88.9205 53.924C88.7573 54.0627 88.664 54.2477 88.664 54.4789C88.664 54.687 88.7573 54.8489 88.9439 54.9877C89.1305 55.1264 89.4337 55.242 89.8536 55.3808C90.4368 55.5426 90.8566 55.7507 91.1599 56.0282C91.4631 56.3057 91.6031 56.6526 91.6031 57.0688C91.6031 57.5081 91.4165 57.8781 91.0666 58.1325C90.7167 58.3868 90.2502 58.5256 89.667 58.5256C89.1072 58.5256 88.6406 58.3868 88.2208 58.0862C87.8009 57.7856 87.6143 57.3925 87.6143 56.8607V56.8375H88.5007C88.5007 57.1613 88.6173 57.4156 88.8506 57.5775C89.0838 57.7394 89.3404 57.8319 89.667 57.8319C89.9936 57.8319 90.2502 57.7625 90.4134 57.6237C90.5767 57.5081 90.67 57.3231 90.67 57.0919Z" fill="#3C8ACA"/>
<path d="M98.2512 56.5601H96.0352V55.8433H98.2512V56.5601Z" fill="#3C8ACA"/>
<path d="M106.742 53.8086H105.062V58.5027H104.152V53.8086H102.496V53.0918H106.742V53.8086Z" fill="#3C8ACA"/>
<path d="M111.29 56.0518H109.144V57.7629H111.663V58.4798H108.234V53.0688H111.64V53.7857H109.144V55.3118H111.29V56.0518Z" fill="#3C8ACA"/>
<path d="M117.261 56.7219C117.285 57.3 117.098 57.7394 116.725 58.0631C116.352 58.3868 115.862 58.5718 115.232 58.5718C114.602 58.5718 114.089 58.3637 113.693 57.9243C113.296 57.5081 113.109 56.9532 113.109 56.3057V55.2651C113.109 54.6177 113.296 54.0627 113.693 53.6465C114.089 53.2303 114.579 52.999 115.209 52.999C115.862 52.999 116.352 53.1609 116.725 53.4846C117.098 53.8084 117.261 54.2477 117.261 54.8258V54.8489H116.398C116.398 54.4789 116.305 54.2015 116.095 54.0165C115.909 53.8315 115.605 53.739 115.232 53.739C114.859 53.739 114.579 53.8777 114.346 54.1783C114.136 54.4789 114.019 54.8258 114.019 55.2883V56.3288C114.019 56.7682 114.136 57.1381 114.346 57.4388C114.556 57.7394 114.859 57.8781 115.255 57.8781C115.629 57.8781 115.909 57.7856 116.095 57.5775C116.282 57.3925 116.375 57.115 116.375 56.745L117.261 56.7219Z" fill="#3C8ACA"/>
<path d="M123.21 58.4798H122.301V56.1674H119.851V58.4798H118.965V53.0688H119.875V55.4506H122.324V53.0688H123.234V58.4798H123.21Z" fill="#3C8ACA"/>
<path d="M129.415 58.4795H128.505L126.08 54.5716H126.056V58.4563H125.146V53.0454H126.056L128.482 56.9533H128.505V53.0685H129.415V58.4795Z" fill="#3C8ACA"/>
<path d="M135.643 56.2595C135.643 56.93 135.433 57.4619 135.013 57.9012C134.593 58.3406 134.057 58.5487 133.38 58.5487C132.727 58.5487 132.191 58.3406 131.794 57.9012C131.374 57.4619 131.188 56.93 131.188 56.2595V55.2883C131.188 54.6408 131.397 54.0858 131.794 53.6465C132.214 53.2071 132.727 52.999 133.38 52.999C134.057 52.999 134.593 53.2071 135.013 53.6465C135.433 54.0858 135.643 54.6408 135.643 55.2883V56.2595ZM134.733 55.2883C134.733 54.8489 134.616 54.4789 134.36 54.1783C134.127 53.8777 133.8 53.739 133.38 53.739C132.984 53.739 132.657 53.8777 132.424 54.1783C132.191 54.4789 132.074 54.8489 132.074 55.2883V56.2595C132.074 56.7219 132.191 57.0919 132.424 57.3694C132.657 57.67 132.984 57.8087 133.38 57.8087C133.8 57.8087 134.127 57.67 134.36 57.3694C134.593 57.0688 134.71 56.6988 134.71 56.2363L134.733 55.2883Z" fill="#3C8ACA"/>
<path d="M138.326 57.7629H140.892V58.4798H137.416V53.0688H138.326V57.7629Z" fill="#3C8ACA"/>
<path d="M146.654 56.2595C146.654 56.93 146.444 57.4619 146.024 57.9012C145.604 58.3406 145.067 58.5487 144.391 58.5487C143.738 58.5487 143.201 58.3406 142.805 57.9012C142.385 57.4619 142.198 56.93 142.198 56.2595V55.2883C142.198 54.6408 142.408 54.0858 142.805 53.6465C143.225 53.2071 143.738 52.999 144.391 52.999C145.067 52.999 145.604 53.2071 146.024 53.6465C146.444 54.0858 146.654 54.6408 146.654 55.2883V56.2595ZM145.744 55.2883C145.744 54.8489 145.627 54.4789 145.371 54.1783C145.137 53.8777 144.811 53.739 144.391 53.739C143.994 53.739 143.668 53.8777 143.435 54.1783C143.201 54.4789 143.085 54.8489 143.085 55.2883V56.2595C143.085 56.7219 143.201 57.0919 143.435 57.3694C143.668 57.67 143.994 57.8087 144.391 57.8087C144.811 57.8087 145.137 57.67 145.371 57.3694C145.604 57.0688 145.721 56.6988 145.721 56.2363L145.744 55.2883Z" fill="#3C8ACA"/>
<path d="M152.461 57.7625C152.321 57.9706 152.065 58.1556 151.738 58.3174C151.412 58.4793 150.992 58.5718 150.455 58.5718C149.802 58.5718 149.289 58.3637 148.869 57.9475C148.449 57.5312 148.239 56.9994 148.239 56.3519V55.2189C148.239 54.5714 148.449 54.0396 148.846 53.6234C149.242 53.2071 149.755 52.999 150.409 52.999C151.038 52.999 151.528 53.1609 151.902 53.4846C152.251 53.8084 152.438 54.2246 152.415 54.7333V54.7564H151.552C151.552 54.4558 151.458 54.2015 151.272 54.0165C151.085 53.8315 150.805 53.739 150.455 53.739C150.082 53.739 149.779 53.8777 149.546 54.1552C149.312 54.4327 149.196 54.7795 149.196 55.2189V56.3519C149.196 56.7913 149.312 57.1381 149.569 57.4388C149.802 57.7162 150.129 57.855 150.502 57.855C150.805 57.855 151.015 57.8319 151.202 57.7625C151.365 57.6931 151.505 57.6237 151.598 57.5312V56.4213H150.455V55.7507H152.508V57.7625H152.461Z" fill="#3C8ACA"/>
<path d="M155.354 58.4798H154.444V53.0688H155.354V58.4798Z" fill="#3C8ACA"/>
<path d="M160.416 56.0518H158.27V57.7629H160.789V58.4798H157.36V53.0688H160.766V53.7857H158.27V55.3118H160.416V56.0518Z" fill="#3C8ACA"/>
<path d="M165.291 57.0919C165.291 56.8607 165.221 56.6757 165.058 56.5369C164.895 56.3982 164.615 56.2595 164.195 56.1438C163.612 55.982 163.145 55.7739 162.842 55.5195C162.539 55.2651 162.375 54.9183 162.375 54.5021C162.375 54.0627 162.539 53.7159 162.888 53.4152C163.238 53.1146 163.682 52.999 164.241 52.999C164.825 52.999 165.291 53.1609 165.664 53.4615C166.014 53.7852 166.178 54.1552 166.178 54.6177V54.6408H165.291C165.291 54.3633 165.198 54.1321 165.011 53.9702C164.825 53.8083 164.568 53.7159 164.241 53.7159C163.938 53.7159 163.705 53.7852 163.542 53.924C163.378 54.0627 163.285 54.2477 163.285 54.4789C163.285 54.687 163.378 54.8489 163.565 54.9877C163.752 55.1264 164.055 55.242 164.475 55.3808C165.058 55.5426 165.478 55.7507 165.781 56.0282C166.084 56.3057 166.224 56.6526 166.224 57.0688C166.224 57.5081 166.038 57.8781 165.688 58.1325C165.338 58.3868 164.871 58.5256 164.288 58.5256C163.728 58.5256 163.262 58.3868 162.842 58.0862C162.422 57.7856 162.235 57.3925 162.235 56.8607V56.8375H163.122C163.122 57.1613 163.238 57.4156 163.472 57.5775C163.705 57.7394 163.962 57.8319 164.288 57.8319C164.615 57.8319 164.871 57.7625 165.035 57.6237C165.198 57.5081 165.291 57.3231 165.291 57.0919Z" fill="#3C8ACA"/>
<path d="M61.2784 53.2075V56.8148C61.2784 57.416 61.0685 57.9016 60.6719 58.2485C60.2754 58.5953 59.7389 58.7572 59.109 58.7572C58.4792 58.7572 57.966 58.5953 57.5695 58.2485C57.1729 57.9016 56.9863 57.4391 56.9863 56.8148V53.2075H57.8961V56.8148C57.8961 57.2079 58.0127 57.5085 58.2226 57.7166C58.4326 57.9247 58.7358 58.0403 59.0857 58.0403C59.4589 58.0403 59.7622 57.9247 59.9955 57.7166C60.2287 57.5085 60.3454 57.2079 60.3454 56.8148V53.2075H61.2784Z" fill="#3C8ACA"/>
</g>
<defs>
<linearGradient id="paint0_linear" x1="36.1095" y1="3.09863" x2="36.1095" y2="14.4523" gradientUnits="userSpaceOnUse">
<stop stop-color="#FBC4AB"/>
<stop offset="0.1509" stop-color="#F8AF94"/>
<stop offset="0.4063" stop-color="#F49177"/>
<stop offset="0.6415" stop-color="#F17D64"/>
<stop offset="0.847" stop-color="#F06F5A"/>
<stop offset="1" stop-color="#EF6B56"/>
</linearGradient>
<linearGradient id="paint1_linear" x1="36.1095" y1="17.2734" x2="36.1095" y2="28.6271" gradientUnits="userSpaceOnUse">
<stop stop-color="#79B6E3"/>
<stop offset="0.0770605" stop-color="#73B0E0"/>
<stop offset="0.4511" stop-color="#579BD4"/>
<stop offset="0.7718" stop-color="#448ECC"/>
<stop offset="1" stop-color="#3C8ACA"/>
</linearGradient>
<linearGradient id="paint2_linear" x1="21.8331" y1="17.25" x2="21.8331" y2="28.6037" gradientUnits="userSpaceOnUse">
<stop stop-color="#79B6E3"/>
<stop offset="0.0770605" stop-color="#73B0E0"/>
<stop offset="0.4511" stop-color="#579BD4"/>
<stop offset="0.7718" stop-color="#448ECC"/>
<stop offset="1" stop-color="#3C8ACA"/>
</linearGradient>
<linearGradient id="paint3_linear" x1="36.1095" y1="31.4161" x2="36.1095" y2="42.7698" gradientUnits="userSpaceOnUse">
<stop stop-color="#79B6E3"/>
<stop offset="0.0770605" stop-color="#73B0E0"/>
<stop offset="0.4511" stop-color="#579BD4"/>
<stop offset="0.7718" stop-color="#448ECC"/>
<stop offset="1" stop-color="#3C8ACA"/>
</linearGradient>
<linearGradient id="paint4_linear" x1="21.8097" y1="31.4712" x2="21.8097" y2="42.8249" gradientUnits="userSpaceOnUse">
<stop stop-color="#79B6E3"/>
<stop offset="0.0770605" stop-color="#73B0E0"/>
<stop offset="0.4511" stop-color="#579BD4"/>
<stop offset="0.7718" stop-color="#448ECC"/>
<stop offset="1" stop-color="#3C8ACA"/>
</linearGradient>
<linearGradient id="paint5_linear" x1="7.53431" y1="31.4712" x2="7.53431" y2="42.8249" gradientUnits="userSpaceOnUse">
<stop stop-color="#79B6E3"/>
<stop offset="0.0770605" stop-color="#73B0E0"/>
<stop offset="0.4511" stop-color="#579BD4"/>
<stop offset="0.7718" stop-color="#448ECC"/>
<stop offset="1" stop-color="#3C8ACA"/>
</linearGradient>
<clipPath id="clip0">
<rect width="169" height="61" fill="white"/>
</clipPath>
</defs>
</svg>
