<svg width="115" height="31" viewBox="0 0 115 31" fill="none" xmlns="http://www.w3.org/2000/svg">
<path d="M54.6984 23.5313C54.5555 24.3281 54.1746 24.9375 53.6666 25.3594C53.1428 25.7656 52.3809 26.0469 51.3174 26.1563C50.0793 26.2813 48.4603 26.3438 46.4285 26.3438C44.1746 26.3438 42.5079 26.2188 41.4444 25.9844C40.3333 25.7344 39.5714 25.2813 39.0952 24.5938C38.619 23.9375 38.3015 22.9844 38.1587 21.6719C38.0634 20.5469 37.9841 18.4844 37.9841 15.4688C37.9841 13.0156 38.0634 10.9688 38.1587 9.32813C38.3333 7.98438 38.6349 7.01563 39.0952 6.4375C39.5873 5.70313 40.3809 5.25 41.4444 5C42.5238 4.75 44.2063 4.64063 46.4285 4.64063C48.3809 4.64063 49.9047 4.71875 51.0476 4.82813C52.0793 5 52.8253 5.29688 53.2698 5.67188C53.746 6.15625 54.0158 6.67188 54.1111 7.17188C54.2063 7.65625 54.365 8.79688 54.5555 10.5938H57.746C57.619 8.625 57.4444 7.1875 57.2063 6.21875C56.9841 5.21875 56.5079 4.39063 55.7777 3.76563C55.0793 3.14063 54.0317 2.67188 52.5714 2.40625C51.1904 2.14063 49.1587 2.01562 46.4444 2.01562C43.4761 2.01562 41.3333 2.15625 40 2.45313C38.5714 2.70313 37.4603 3.28125 36.6984 4.17188C35.8888 5.04688 35.365 6.32813 35.0952 8.03125C34.8253 9.73438 34.6984 12.2188 34.6984 15.4375C34.746 18.6875 34.873 21.1406 35.0952 22.8281C35.365 24.5469 35.8888 25.8438 36.6825 26.7188C37.492 27.5938 38.6031 28.1719 40.0634 28.4375C41.4285 28.7344 43.5714 28.875 46.4603 28.875C49.1746 28.875 51.3015 28.75 52.8571 28.5156C54.2857 28.2656 55.3968 27.8594 56.2222 27.2031C56.9841 26.5938 57.4761 25.7031 57.7777 24.5469C58.0317 23.4063 58.1746 21.7969 58.1746 19.7344H54.9841C54.9523 21.3438 54.873 22.6094 54.6984 23.5313Z" fill="#F06B56"/>
<path d="M84.6507 15.9688C84.0634 15.4844 83.1269 15.0625 81.7936 14.7344C82.9047 14.3906 83.6983 13.9375 84.1904 13.3906C84.7618 12.875 85.111 12.2656 85.2539 11.5C85.4285 10.7188 85.5237 9.79688 85.5237 8.70313C85.5237 7.07813 85.2539 5.76563 84.7618 4.76563C84.2221 3.8125 83.3967 3.14063 82.3491 2.75C81.2856 2.35938 79.8253 2.17188 77.9999 2.17188H74.6666H63.8729V28.6406H74.6666H78.8412C80.6983 28.6406 82.2063 28.3438 83.365 27.7656C84.4761 27.1406 85.2698 26.2813 85.7142 25.1875C86.1586 24.0938 86.3809 22.6875 86.3809 21.0313C86.3809 19.7656 86.2539 18.75 86.0158 17.9688C85.7618 17.1563 85.3174 16.5 84.6507 15.9688ZM67.1269 4.76563H74.6507H77.6348C78.7936 4.76563 79.7301 4.89063 80.4285 5.125C81.0634 5.39063 81.5396 5.82813 81.7936 6.39063C82.0634 7 82.1904 7.84375 82.1904 8.9375C82.1904 10.2188 82.0158 11.2188 81.6666 11.875C81.3015 12.5625 80.7301 13.0156 79.9364 13.3125C79.1428 13.5781 77.984 13.7031 76.4602 13.7031H74.6507H67.1269V4.76563ZM82.3491 24.4844C81.9523 25.1719 81.2856 25.5781 80.3809 25.75C79.5237 25.9375 78.111 26.0156 76.1904 26.0156H74.6666H67.1428V16.2969H74.6666H77.5555C79.111 16.2969 80.238 16.4375 80.9682 16.6875C81.7301 16.9844 82.2539 17.4375 82.5713 18.0781C82.8888 18.7031 83.0475 19.7344 83.0475 21.1875C83.0158 22.6563 82.7936 23.75 82.3491 24.4844Z" fill="#F06B56"/>
<path d="M90.619 2.17188V4.8125H100.254V28.6406H103.587V4.8125H113.095V2.17188H90.619Z" fill="#F06B56"/>
<path d="M2.41251 21.2188H7.85696C8.49188 21.2188 9.01569 21.75 9.01569 22.375V27.75C9.01569 28.375 8.49188 28.9063 7.85696 28.9063H2.41251C1.77759 28.9063 1.25378 28.375 1.25378 27.75V22.375C1.25378 21.75 1.76172 21.2188 2.41251 21.2188Z" fill="#3C8ACA"/>
<path d="M12.127 21.2188H17.5714C18.2064 21.2188 18.7302 21.75 18.7302 22.375V27.75C18.7302 28.375 18.2064 28.9063 17.5714 28.9063H12.127C11.4921 28.9063 10.9683 28.375 10.9683 27.75V22.375C10.9683 21.75 11.4921 21.2188 12.127 21.2188Z" fill="#3C8ACA"/>
<path d="M12.127 11.6719H17.5714C18.2064 11.6719 18.7302 12.1875 18.7302 12.8125V18.2031C18.7302 18.8281 18.2064 19.3438 17.5714 19.3438H12.127C11.4921 19.3438 10.9683 18.8281 10.9683 18.2031V12.8125C10.9683 12.1719 11.4921 11.6719 12.127 11.6719Z" fill="#3C8ACA"/>
<path d="M21.8571 21.2188H27.2857C27.9206 21.2188 28.4603 21.75 28.4603 22.375V27.75C28.4603 28.375 27.9206 28.9063 27.2857 28.9063H21.8571C21.2222 28.9063 20.6825 28.375 20.6825 27.75V22.375C20.6825 21.75 21.2063 21.2188 21.8571 21.2188Z" fill="#3C8ACA"/>
<path d="M21.8571 11.6719H27.2857C27.9206 11.6719 28.4603 12.1875 28.4603 12.8125V18.2031C28.4603 18.8281 27.9206 19.3438 27.2857 19.3438H21.8571C21.2222 19.3438 20.6825 18.8281 20.6825 18.2031V12.8125C20.6825 12.1719 21.2063 11.6719 21.8571 11.6719Z" fill="#3C8ACA"/>
<path d="M21.8571 2.09375H27.2857C27.9206 2.09375 28.4603 2.60938 28.4603 3.23438V8.625C28.4603 9.25 27.9206 9.76563 27.2857 9.76563H21.8571C21.2222 9.76563 20.6825 9.25 20.6825 8.625V3.23438C20.6825 2.60938 21.2063 2.09375 21.8571 2.09375Z" fill="#F06B56"/>
<path d="M26.0158 9.76563L20.6825 3.23438C20.6825 2.60938 21.2222 2.09375 21.8571 2.09375H27.2857C27.9206 2.09375 28.4603 2.60938 28.4603 3.23438V8.625C28.4603 9.25 27.9206 9.76563 27.2857 9.76563" fill="url(#paint0_linear)"/>
<path d="M26.0158 19.3281L20.6825 12.8125C20.6825 12.1875 21.2222 11.6719 21.8571 11.6719H27.2857C27.9206 11.6719 28.4603 12.1875 28.4603 12.8125V18.2031C28.4603 18.8281 27.9206 19.3438 27.2857 19.3438" fill="url(#paint1_linear)"/>
<path d="M16.3015 19.3125L10.9681 12.7969C10.9681 12.1719 11.5078 11.6562 12.1427 11.6562H17.5713C18.2062 11.6562 18.7459 12.1719 18.7459 12.7969V18.1875C18.7459 18.8125 18.2062 19.3281 17.5713 19.3281" fill="url(#paint2_linear)"/>
<path d="M26.0158 28.8906L20.6825 22.3594C20.6825 21.7344 21.2222 21.2188 21.8571 21.2188H27.2857C27.9206 21.2188 28.4603 21.7344 28.4603 22.3594V27.75C28.4603 28.375 27.9206 28.8906 27.2857 28.8906" fill="url(#paint3_linear)"/>
<path d="M16.3015 28.9219L10.9523 22.4062C10.9523 21.7812 11.492 21.2656 12.1269 21.2656H17.5554C18.1904 21.2656 18.7301 21.7812 18.7301 22.4062V27.7969C18.7301 28.4219 18.1904 28.9375 17.5554 28.9375" fill="url(#paint4_linear)"/>
<path d="M6.57137 28.9219L1.23804 22.4062C1.23804 21.7812 1.77772 21.2656 2.41264 21.2656H7.84121C8.47613 21.2656 9.01581 21.7812 9.01581 22.4062V27.7969C9.01581 28.4219 8.47613 28.9375 7.84121 28.9375" fill="url(#paint5_linear)"/>
<defs>
<linearGradient id="paint0_linear" x1="24.5666" y1="2.09413" x2="24.5666" y2="9.75969" gradientUnits="userSpaceOnUse">
<stop stop-color="#FBC4AB"/>
<stop offset="0.1509" stop-color="#F8AF94"/>
<stop offset="0.4063" stop-color="#F49177"/>
<stop offset="0.6415" stop-color="#F17D64"/>
<stop offset="0.847" stop-color="#F06F5A"/>
<stop offset="1" stop-color="#EF6B56"/>
</linearGradient>
<linearGradient id="paint1_linear" x1="24.5666" y1="11.665" x2="24.5666" y2="19.3305" gradientUnits="userSpaceOnUse">
<stop stop-color="#79B6E3"/>
<stop offset="0.0770605" stop-color="#73B0E0"/>
<stop offset="0.4511" stop-color="#579BD4"/>
<stop offset="0.7718" stop-color="#448ECC"/>
<stop offset="1" stop-color="#3C8ACA"/>
</linearGradient>
<linearGradient id="paint2_linear" x1="14.8513" y1="11.6545" x2="14.8513" y2="19.32" gradientUnits="userSpaceOnUse">
<stop stop-color="#79B6E3"/>
<stop offset="0.0770605" stop-color="#73B0E0"/>
<stop offset="0.4511" stop-color="#579BD4"/>
<stop offset="0.7718" stop-color="#448ECC"/>
<stop offset="1" stop-color="#3C8ACA"/>
</linearGradient>
<linearGradient id="paint3_linear" x1="24.5666" y1="21.2284" x2="24.5666" y2="28.8939" gradientUnits="userSpaceOnUse">
<stop stop-color="#79B6E3"/>
<stop offset="0.0770605" stop-color="#73B0E0"/>
<stop offset="0.4511" stop-color="#579BD4"/>
<stop offset="0.7718" stop-color="#448ECC"/>
<stop offset="1" stop-color="#3C8ACA"/>
</linearGradient>
<linearGradient id="paint4_linear" x1="14.8437" y1="21.2598" x2="14.8437" y2="28.9254" gradientUnits="userSpaceOnUse">
<stop stop-color="#79B6E3"/>
<stop offset="0.0770605" stop-color="#73B0E0"/>
<stop offset="0.4511" stop-color="#579BD4"/>
<stop offset="0.7718" stop-color="#448ECC"/>
<stop offset="1" stop-color="#3C8ACA"/>
</linearGradient>
<linearGradient id="paint5_linear" x1="5.12094" y1="21.2598" x2="5.12094" y2="28.9254" gradientUnits="userSpaceOnUse">
<stop stop-color="#79B6E3"/>
<stop offset="0.0770605" stop-color="#73B0E0"/>
<stop offset="0.4511" stop-color="#579BD4"/>
<stop offset="0.7718" stop-color="#448ECC"/>
<stop offset="1" stop-color="#3C8ACA"/>
</linearGradient>
</defs>
</svg>
