<svg width="169" height="61" viewBox="0 0 169 61" fill="none" xmlns="http://www.w3.org/2000/svg">
<g clip-path="url(#clip0)">
<path d="M80.3835 34.8241C80.1735 36.0034 79.6137 36.9053 78.8673 37.5296C78.0975 38.1308 76.9778 38.547 75.415 38.7089C73.5955 38.8939 71.2162 38.9864 68.2304 38.9864C64.9181 38.9864 62.4688 38.8014 60.9059 38.4545C59.2731 38.0846 58.1534 37.414 57.4536 36.3965C56.7538 35.4254 56.2873 34.0148 56.0773 32.0724C55.9374 30.4075 55.8208 27.3552 55.8208 22.8924C55.8208 19.262 55.9374 16.2328 56.0773 13.8048C56.3339 11.8162 56.7771 10.3825 57.4536 9.52695C58.1767 8.44014 59.343 7.76955 60.9059 7.39958C62.4921 7.0296 64.9647 6.86773 68.2304 6.86773C71.0996 6.86773 73.3389 6.98335 75.0184 7.14522C76.5346 7.39958 77.631 7.83892 78.2841 8.39389C78.9839 9.11072 79.3804 9.8738 79.5204 10.6138C79.6604 11.3306 79.8936 13.0186 80.1736 15.6778H84.8622C84.6755 12.7642 84.419 10.6369 84.0691 9.20321C83.7425 7.72331 83.0427 6.49776 81.9697 5.57281C80.9433 4.64787 79.4038 3.95416 77.2577 3.56106C75.2283 3.16796 72.2426 2.98297 68.2537 2.98297C63.8917 2.98297 60.7426 3.19108 58.7832 3.63043C56.6838 4.00041 55.051 4.85598 53.9313 6.17403C52.7417 7.46895 51.9719 9.36508 51.5753 11.8856C51.1788 14.406 50.9922 18.0827 50.9922 22.8461C51.0622 27.6558 51.2488 31.2862 51.5753 33.7836C51.9719 36.3272 52.7417 38.2464 53.908 39.5414C55.0976 40.8363 56.7305 41.6918 58.8765 42.0849C60.8826 42.5243 64.0317 42.7324 68.2771 42.7324C72.2659 42.7324 75.3916 42.5474 77.6776 42.2006C79.777 41.8306 81.4099 41.2294 82.6228 40.2582C83.7425 39.3564 84.4656 38.0383 84.9088 36.3272C85.282 34.6392 85.492 32.2574 85.492 29.2051H80.8034C80.7567 31.5868 80.6401 33.4599 80.3835 34.8241Z" fill="white"/>
<path d="M124.401 23.6323C123.537 22.9155 122.161 22.2912 120.202 21.8056C121.835 21.2969 123.001 20.6263 123.724 19.817C124.564 19.0539 125.077 18.1521 125.287 17.019C125.544 15.8628 125.683 14.4985 125.683 12.8799C125.683 10.475 125.287 8.53266 124.564 7.05275C123.771 5.64221 122.558 4.6479 121.018 4.06981C119.455 3.49172 117.309 3.21423 114.627 3.21423H109.728H93.8662V42.3856H109.728H115.863C118.592 42.3856 120.808 41.9462 122.511 41.0906C124.144 40.1657 125.31 38.8939 125.963 37.2753C126.617 35.6566 126.943 33.5755 126.943 31.1244C126.943 29.2514 126.757 27.7483 126.407 26.5922C126.033 25.3897 125.38 24.4185 124.401 23.6323ZM98.6481 7.05275H109.705H114.09C115.793 7.05275 117.169 7.23773 118.196 7.58459C119.129 7.97769 119.829 8.62515 120.202 9.4576C120.598 10.3594 120.785 11.6081 120.785 13.2267C120.785 15.1229 120.528 16.6028 120.015 17.574C119.479 18.5914 118.639 19.262 117.473 19.7013C116.306 20.0944 114.603 20.2794 112.364 20.2794H109.705H98.6481V7.05275ZM121.018 36.2347C120.435 37.2521 119.455 37.8533 118.126 38.1077C116.866 38.3852 114.79 38.5008 111.968 38.5008H109.728H98.6715V24.1179H109.728H113.974C116.26 24.1179 117.916 24.3261 118.989 24.696C120.108 25.1354 120.878 25.806 121.345 26.754C121.811 27.679 122.045 29.2051 122.045 31.3556C121.998 33.5292 121.671 35.1479 121.018 36.2347Z" fill="white"/>
<path d="M133.171 3.21423V7.12212H147.331V42.3856H152.229V7.12212H166.202V3.21423H133.171Z" fill="white"/>
<path d="M3.54609 31.4019H11.5471C12.4801 31.4019 13.2499 32.1881 13.2499 33.113V41.0675C13.2499 41.9925 12.4801 42.7787 11.5471 42.7787H3.54609C2.61303 42.7787 1.84326 41.9925 1.84326 41.0675V33.113C1.84326 32.1881 2.58971 31.4019 3.54609 31.4019Z" fill="white"/>
<path d="M17.822 31.4019H25.8229C26.756 31.4019 27.5258 32.1881 27.5258 33.113V41.0675C27.5258 41.9925 26.756 42.7787 25.8229 42.7787H17.822C16.8889 42.7787 16.1191 41.9925 16.1191 41.0675V33.113C16.1191 32.1881 16.8889 31.4019 17.822 31.4019Z" fill="white"/>
<path d="M17.822 17.2733H25.8229C26.756 17.2733 27.5258 18.0364 27.5258 18.9613V26.939C27.5258 27.8639 26.756 28.627 25.8229 28.627H17.822C16.8889 28.627 16.1191 27.8639 16.1191 26.939V18.9613C16.1191 18.0133 16.8889 17.2733 17.822 17.2733Z" fill="white"/>
<path d="M32.1207 31.4019H40.0983C41.0314 31.4019 41.8245 32.1881 41.8245 33.113V41.0675C41.8245 41.9925 41.0314 42.7787 40.0983 42.7787H32.1207C31.1876 42.7787 30.3945 41.9925 30.3945 41.0675V33.113C30.3945 32.1881 31.1643 31.4019 32.1207 31.4019Z" fill="white"/>
<path d="M32.1207 17.2733H40.0983C41.0314 17.2733 41.8245 18.0364 41.8245 18.9613V26.939C41.8245 27.8639 41.0314 28.627 40.0983 28.627H32.1207C31.1876 28.627 30.3945 27.8639 30.3945 26.939V18.9613C30.3945 18.0133 31.1643 17.2733 32.1207 17.2733Z" fill="white"/>
<path d="M32.1207 3.09857H40.0983C41.0314 3.09857 41.8245 3.86165 41.8245 4.78659V12.7642C41.8245 13.6892 41.0314 14.4522 40.0983 14.4522H32.1207C31.1876 14.4522 30.3945 13.6892 30.3945 12.7642V4.78659C30.3945 3.86165 31.1643 3.09857 32.1207 3.09857Z" fill="white"/>
<path d="M38.2317 14.4522L30.394 4.78659C30.394 3.86165 31.1871 3.09857 32.1202 3.09857H40.0978C41.0309 3.09857 41.824 3.86165 41.824 4.78659V12.7642C41.824 13.6892 41.0309 14.4522 40.0978 14.4522" fill="white"/>
<path d="M38.2317 28.6039L30.394 18.9613C30.394 18.0364 31.1871 17.2733 32.1202 17.2733H40.0978C41.0309 17.2733 41.824 18.0364 41.824 18.9613V26.939C41.824 27.8639 41.0309 28.627 40.0978 28.627" fill="white"/>
<path d="M23.9563 28.5808L16.1187 18.9383C16.1187 18.0133 16.9118 17.2502 17.8448 17.2502H25.8224C26.7555 17.2502 27.5486 18.0133 27.5486 18.9383V26.9159C27.5486 27.8408 26.7555 28.6039 25.8224 28.6039" fill="white"/>
<path d="M38.2317 42.7555L30.394 33.0899C30.394 32.1649 31.1871 31.4019 32.1202 31.4019H40.0978C41.0309 31.4019 41.824 32.1649 41.824 33.0899V41.0675C41.824 41.9925 41.0309 42.7555 40.0978 42.7555" fill="white"/>
<path d="M23.9562 42.8018L16.0952 33.1592C16.0952 32.2343 16.8883 31.4712 17.8214 31.4712H25.799C26.7321 31.4712 27.5252 32.2343 27.5252 33.1592V41.1369C27.5252 42.0618 26.7321 42.8249 25.799 42.8249" fill="white"/>
<path d="M9.65702 42.8018L1.81934 33.1592C1.81934 32.2343 2.61243 31.4712 3.54549 31.4712H11.5231C12.4562 31.4712 13.2493 32.2343 13.2493 33.1592V41.1369C13.2493 42.0618 12.4562 42.8249 11.5231 42.8249" fill="white"/>
<path d="M6.39185 56.7222C6.41518 57.3003 6.22857 57.7396 5.85534 58.0633C5.48212 58.3871 4.99226 58.5721 4.36245 58.5721C3.73264 58.5721 3.21946 58.3639 2.82291 57.9246C2.42636 57.5084 2.23975 56.9534 2.23975 56.3059V55.2654C2.23975 54.6179 2.42636 54.063 2.82291 53.6467C3.21946 53.2305 3.70931 52.9993 4.33912 52.9993C4.99226 52.9993 5.48212 53.1611 5.85534 53.4849C6.22857 53.8086 6.39185 54.2479 6.39185 54.826V54.8492H5.50545C5.50545 54.4792 5.41214 54.2017 5.2022 54.0167C5.01559 53.8317 4.71235 53.7392 4.33912 53.7392C3.9659 53.7392 3.68598 53.878 3.45272 54.1786C3.24278 54.4792 3.12615 54.826 3.12615 55.2885V56.3291C3.12615 56.7684 3.24278 57.1384 3.45272 57.439C3.66266 57.7396 3.9659 57.8783 4.36245 57.8783C4.73567 57.8783 5.01559 57.7858 5.2022 57.5777C5.38881 57.3927 5.48212 57.1153 5.48212 56.7453L6.39185 56.7222Z" fill="white"/>
<path d="M11.1267 56.0515H8.98064V57.7627H11.4999V58.4795H8.09424V53.0686H11.4999V53.7854H9.00397V55.3116H11.15L11.1267 56.0515Z" fill="white"/>
<path d="M17.4016 58.4795H16.4918L14.0659 54.5716H14.0425V58.4564H13.1328V53.0455H14.0425L16.4685 56.9534H16.4918V53.0686H17.4016V58.4795Z" fill="white"/>
<path d="M23.0467 53.8086H21.3672V58.5027H20.4574V53.8086H18.8013V53.0917H23.0467V53.8086Z" fill="white"/>
<path d="M27.5724 56.0515H25.4263V57.7627H27.9456V58.4795H24.5166V53.0686H27.9223V53.7854H25.4263V55.3116H27.5724V56.0515Z" fill="white"/>
<path d="M30.4879 56.2365V58.4795H29.5781V53.0686H31.4442C32.0507 53.0686 32.5173 53.2073 32.8438 53.4848C33.1704 53.7623 33.3337 54.1554 33.3337 54.641C33.3337 54.9185 33.2637 55.1728 33.1237 55.3578C32.9838 55.5428 32.7739 55.7278 32.4939 55.8434C32.7972 55.9359 33.0304 56.0978 33.1704 56.3059C33.3104 56.514 33.3803 56.7915 33.3803 57.1152V57.5546C33.3803 57.7164 33.4037 57.8783 33.4503 58.0171C33.497 58.1558 33.567 58.2945 33.6603 58.3639V58.4564H32.7272C32.6339 58.3639 32.5639 58.2483 32.5406 58.0633C32.5173 57.8783 32.4939 57.7164 32.4939 57.5546V57.1152C32.4939 56.8377 32.424 56.6065 32.2607 56.4446C32.0974 56.2828 31.8874 56.1903 31.6075 56.1903H30.4879V56.2365ZM30.4879 55.5197H31.3976C31.7708 55.5197 32.0274 55.4503 32.1907 55.3116C32.354 55.1728 32.4473 54.9647 32.4473 54.6873C32.4473 54.4098 32.354 54.2017 32.1907 54.0398C32.0274 53.8779 31.7708 53.8086 31.4442 53.8086H30.4879V55.5197Z" fill="white"/>
<path d="M42.2444 56.2597C42.2444 56.9303 42.0345 57.4621 41.6146 57.9015C41.1947 58.3408 40.6582 58.5489 39.9817 58.5489C39.3286 58.5489 38.7921 58.3408 38.3956 57.9015C37.9757 57.4621 37.7891 56.9303 37.7891 56.2597V55.2885C37.7891 54.641 37.999 54.0861 38.3956 53.6467C38.7921 53.2074 39.3286 52.9993 39.9817 52.9993C40.6582 52.9993 41.1947 53.2074 41.6146 53.6467C42.0345 54.0861 42.2444 54.641 42.2444 55.2885V56.2597ZM41.3347 55.2885C41.3347 54.8492 41.218 54.4792 40.9615 54.1786C40.7049 53.878 40.4016 53.7392 39.9817 53.7392C39.5852 53.7392 39.2586 53.878 39.0254 54.1786C38.7921 54.4792 38.6755 54.8492 38.6755 55.2885V56.2597C38.6755 56.7222 38.7921 57.0921 39.0254 57.3696C39.2586 57.6702 39.5852 57.809 39.9817 57.809C40.4016 57.809 40.7282 57.6702 40.9615 57.3696C41.1947 57.069 41.3114 56.699 41.3114 56.2366V55.2885H41.3347Z" fill="white"/>
<path d="M47.119 56.1903H44.9263V58.5027H44.0166V53.0917H47.5156V53.8086H44.9263V55.4503H47.119V56.1903Z" fill="white"/>
<path d="M51.7847 58.4795V53.0686H53.5808C54.1873 53.0686 54.6538 53.1842 55.0037 53.4386C55.3536 53.6929 55.5169 54.0629 55.5169 54.5485C55.5169 54.7797 55.4469 55.011 55.307 55.196C55.167 55.381 54.9804 55.5428 54.7471 55.6353C55.097 55.6816 55.3769 55.8434 55.5635 56.0747C55.7502 56.3059 55.8435 56.6065 55.8435 56.9302C55.8435 57.439 55.6802 57.8321 55.3303 58.0864C54.9804 58.3408 54.5372 58.4795 53.954 58.4795H51.7847ZM52.6944 55.3578H53.6741C53.954 55.3578 54.1873 55.2885 54.3506 55.1497C54.5139 55.011 54.6072 54.826 54.6072 54.5948C54.6072 54.3173 54.5139 54.1323 54.3506 53.9935C54.1873 53.8548 53.9307 53.8086 53.6041 53.8086H52.7177L52.6944 55.3578ZM52.6944 56.0284V57.7627H53.9307C54.2339 57.7627 54.4905 57.6933 54.6538 57.5546C54.8171 57.4158 54.9104 57.2077 54.9104 56.9302C54.9104 56.6528 54.8171 56.4446 54.6538 56.2828C54.4905 56.1209 54.2573 56.0284 53.954 56.0284H53.884H52.6944Z" fill="white"/>
<path d="M65.3839 57.0921C65.3839 56.8609 65.3139 56.6759 65.1506 56.5372C64.9873 56.3984 64.7074 56.2597 64.2875 56.1441C63.7044 55.9822 63.2378 55.7741 62.9346 55.5197C62.608 55.2654 62.4681 54.9185 62.4681 54.5023C62.4681 54.063 62.6314 53.7161 62.9813 53.4155C63.3312 53.138 63.7744 52.9993 64.3342 52.9993C64.9174 52.9993 65.3839 53.1611 65.7571 53.4617C66.107 53.7855 66.2703 54.1554 66.2703 54.6179V54.641H65.3839C65.3839 54.3636 65.2906 54.1323 65.104 53.9705C64.9174 53.8086 64.6608 53.7161 64.3342 53.7161C64.0309 53.7161 63.7977 53.7855 63.6344 53.9242C63.4711 54.063 63.3778 54.2479 63.3778 54.4792C63.3778 54.6873 63.4711 54.8492 63.6577 54.9879C63.8443 55.1266 64.1476 55.2423 64.5675 55.381C65.1506 55.5429 65.5705 55.751 65.8737 56.0285C66.177 56.3059 66.3169 56.6528 66.3169 57.069C66.3169 57.5084 66.1303 57.8783 65.7804 58.1327C65.4305 58.4102 64.964 58.5258 64.3808 58.5258C63.821 58.5258 63.3545 58.3871 62.9346 58.0865C62.5147 57.7858 62.3281 57.3927 62.3281 56.8609V56.8378H63.2145C63.2145 57.1615 63.3312 57.4159 63.5644 57.5777C63.7977 57.7396 64.0543 57.8321 64.3808 57.8321C64.7074 57.8321 64.964 57.7627 65.1273 57.624C65.2906 57.5084 65.3839 57.3234 65.3839 57.0921Z" fill="white"/>
<path d="M68.9991 58.4795H68.0894V53.0686H68.9991V58.4795Z" fill="white"/>
<path d="M75.2975 58.4795H74.3878L71.9619 54.5716H71.9385V58.4564H71.0288V53.0455H71.9385L74.3645 56.9534H74.3878V53.0686H75.2975V58.4795Z" fill="white"/>
<path d="M80.2901 56.0515H78.1441V57.7627H80.6634V58.4795H77.2344V53.0686H80.64V53.7854H78.1441V55.3116H80.2901V56.0515Z" fill="white"/>
<path d="M85.1645 57.0921C85.1645 56.8609 85.0946 56.6759 84.9313 56.5372C84.768 56.3984 84.4881 56.2597 84.0682 56.1441C83.485 55.9822 83.0185 55.7741 82.7153 55.5197C82.3887 55.2654 82.2487 54.9185 82.2487 54.5023C82.2487 54.063 82.412 53.7161 82.7619 53.4155C83.1118 53.138 83.555 52.9993 84.1149 52.9993C84.698 52.9993 85.1645 53.1611 85.5378 53.4617C85.8877 53.7855 86.0509 54.1554 86.0509 54.6179V54.641H85.1412C85.1412 54.3636 85.0479 54.1323 84.8613 53.9705C84.6747 53.8086 84.4181 53.7161 84.0915 53.7161C83.7883 53.7161 83.555 53.7855 83.3917 53.9242C83.2284 54.063 83.1351 54.2479 83.1351 54.4792C83.1351 54.6873 83.2284 54.8492 83.4151 54.9879C83.6017 55.1266 83.9049 55.2423 84.3248 55.381C84.908 55.5429 85.3278 55.751 85.6311 56.0285C85.9343 56.3059 86.0743 56.6528 86.0743 57.069C86.0743 57.5084 85.8877 57.8783 85.5378 58.1327C85.1879 58.4102 84.7213 58.5258 84.1382 58.5258C83.5783 58.5258 83.1118 58.3871 82.6919 58.0865C82.2721 57.7858 82.0854 57.3927 82.0854 56.8609V56.8378H82.9719C82.9719 57.1615 83.0885 57.4159 83.3218 57.5777C83.555 57.7396 83.8116 57.8321 84.1382 57.8321C84.4648 57.8321 84.7213 57.7627 84.8846 57.624C85.0712 57.5084 85.1645 57.3234 85.1645 57.0921Z" fill="white"/>
<path d="M90.67 57.0921C90.67 56.8609 90.6001 56.6759 90.4368 56.5372C90.2735 56.3984 89.9936 56.2597 89.5737 56.1441C88.9905 55.9822 88.524 55.7741 88.2208 55.5197C87.9175 55.2654 87.7542 54.9185 87.7542 54.5023C87.7542 54.063 87.9175 53.7161 88.2674 53.4155C88.6173 53.1149 89.0605 52.9993 89.6203 52.9993C90.2035 52.9993 90.67 53.1611 91.0433 53.4617C91.3932 53.7855 91.5564 54.1554 91.5564 54.6179V54.641H90.67C90.67 54.3636 90.5767 54.1323 90.3901 53.9705C90.2035 53.8086 89.9469 53.7161 89.6203 53.7161C89.3171 53.7161 89.0838 53.7855 88.9205 53.9242C88.7573 54.063 88.664 54.2479 88.664 54.4792C88.664 54.6873 88.7573 54.8492 88.9439 54.9879C89.1305 55.1266 89.4337 55.2423 89.8536 55.381C90.4368 55.5429 90.8566 55.751 91.1599 56.0285C91.4631 56.3059 91.6031 56.6528 91.6031 57.069C91.6031 57.5084 91.4165 57.8783 91.0666 58.1327C90.7167 58.3871 90.2502 58.5258 89.667 58.5258C89.1072 58.5258 88.6406 58.3871 88.2208 58.0865C87.8009 57.7858 87.6143 57.3927 87.6143 56.8609V56.8378H88.5007C88.5007 57.1615 88.6173 57.4159 88.8506 57.5777C89.0838 57.7396 89.3404 57.8321 89.667 57.8321C89.9936 57.8321 90.2502 57.7627 90.4134 57.624C90.5767 57.5084 90.67 57.3234 90.67 57.0921Z" fill="white"/>
<path d="M98.2507 56.5603H96.0347V55.8434H98.2507V56.5603Z" fill="white"/>
<path d="M106.742 53.8086H105.062V58.5027H104.152V53.8086H102.496V53.0917H106.742V53.8086Z" fill="white"/>
<path d="M111.29 56.0515H109.144V57.7627H111.663V58.4795H108.234V53.0686H111.64V53.7854H109.144V55.3116H111.29V56.0515Z" fill="white"/>
<path d="M117.261 56.7222C117.285 57.3003 117.098 57.7396 116.725 58.0633C116.352 58.3871 115.862 58.5721 115.232 58.5721C114.602 58.5721 114.089 58.3639 113.693 57.9246C113.296 57.5084 113.109 56.9534 113.109 56.3059V55.2654C113.109 54.6179 113.296 54.063 113.693 53.6467C114.089 53.2305 114.579 52.9993 115.209 52.9993C115.862 52.9993 116.352 53.1611 116.725 53.4849C117.098 53.8086 117.261 54.2479 117.261 54.826V54.8492H116.398C116.398 54.4792 116.305 54.2017 116.095 54.0167C115.909 53.8317 115.605 53.7392 115.232 53.7392C114.859 53.7392 114.579 53.878 114.346 54.1786C114.136 54.4792 114.019 54.826 114.019 55.2885V56.3291C114.019 56.7684 114.136 57.1384 114.346 57.439C114.556 57.7396 114.859 57.8783 115.255 57.8783C115.629 57.8783 115.909 57.7858 116.095 57.5777C116.282 57.3927 116.375 57.1153 116.375 56.7453L117.261 56.7222Z" fill="white"/>
<path d="M123.21 58.4795H122.301V56.1672H119.851V58.4795H118.965V53.0686H119.875V55.4503H122.324V53.0686H123.234V58.4795H123.21Z" fill="white"/>
<path d="M129.415 58.4795H128.505L126.079 54.5716H126.056V58.4564H125.146V53.0455H126.056L128.482 56.9534H128.505V53.0686H129.415V58.4795Z" fill="white"/>
<path d="M135.643 56.2597C135.643 56.9303 135.433 57.4621 135.013 57.9015C134.593 58.3408 134.057 58.5489 133.38 58.5489C132.727 58.5489 132.191 58.3408 131.794 57.9015C131.374 57.4621 131.188 56.9303 131.188 56.2597V55.2885C131.188 54.641 131.397 54.0861 131.794 53.6467C132.214 53.2074 132.727 52.9993 133.38 52.9993C134.057 52.9993 134.593 53.2074 135.013 53.6467C135.433 54.0861 135.643 54.641 135.643 55.2885V56.2597ZM134.733 55.2885C134.733 54.8492 134.616 54.4792 134.36 54.1786C134.127 53.878 133.8 53.7392 133.38 53.7392C132.984 53.7392 132.657 53.878 132.424 54.1786C132.191 54.4792 132.074 54.8492 132.074 55.2885V56.2597C132.074 56.7222 132.191 57.0921 132.424 57.3696C132.657 57.6702 132.984 57.809 133.38 57.809C133.8 57.809 134.127 57.6702 134.36 57.3696C134.593 57.069 134.71 56.699 134.71 56.2366L134.733 55.2885Z" fill="white"/>
<path d="M138.326 57.7627H140.892V58.4795H137.417V53.0686H138.326V57.7627Z" fill="white"/>
<path d="M146.654 56.2597C146.654 56.9303 146.444 57.4621 146.024 57.9015C145.604 58.3408 145.067 58.5489 144.391 58.5489C143.738 58.5489 143.201 58.3408 142.805 57.9015C142.385 57.4621 142.198 56.9303 142.198 56.2597V55.2885C142.198 54.641 142.408 54.0861 142.805 53.6467C143.225 53.2074 143.738 52.9993 144.391 52.9993C145.067 52.9993 145.604 53.2074 146.024 53.6467C146.444 54.0861 146.654 54.641 146.654 55.2885V56.2597ZM145.744 55.2885C145.744 54.8492 145.627 54.4792 145.371 54.1786C145.137 53.878 144.811 53.7392 144.391 53.7392C143.994 53.7392 143.668 53.878 143.435 54.1786C143.201 54.4792 143.085 54.8492 143.085 55.2885V56.2597C143.085 56.7222 143.201 57.0921 143.435 57.3696C143.668 57.6702 143.994 57.809 144.391 57.809C144.811 57.809 145.137 57.6702 145.371 57.3696C145.604 57.069 145.721 56.699 145.721 56.2366L145.744 55.2885Z" fill="white"/>
<path d="M152.461 57.7627C152.321 57.9708 152.065 58.1558 151.738 58.3177C151.412 58.4796 150.992 58.5721 150.455 58.5721C149.802 58.5721 149.289 58.3639 148.869 57.9477C148.449 57.5315 148.239 56.9996 148.239 56.3522V55.2191C148.239 54.5717 148.449 54.0398 148.846 53.6236C149.242 53.2074 149.755 52.9993 150.409 52.9993C151.038 52.9993 151.528 53.1611 151.902 53.4849C152.251 53.8086 152.438 54.2248 152.415 54.7335V54.7567H151.552C151.552 54.4561 151.458 54.2017 151.272 54.0167C151.085 53.8317 150.805 53.7392 150.455 53.7392C150.082 53.7392 149.779 53.878 149.546 54.1554C149.312 54.4329 149.196 54.7798 149.196 55.2191V56.3522C149.196 56.7915 149.312 57.1384 149.569 57.439C149.802 57.7165 150.129 57.8552 150.502 57.8552C150.805 57.8552 151.015 57.8321 151.202 57.7627C151.365 57.6934 151.505 57.624 151.598 57.5315V56.4216H150.455V55.751H152.508V57.7627H152.461Z" fill="white"/>
<path d="M155.355 58.4795H154.445V53.0686H155.355V58.4795Z" fill="white"/>
<path d="M160.416 56.0515H158.27V57.7627H160.789V58.4795H157.36V53.0686H160.766V53.7854H158.27V55.3116H160.416V56.0515Z" fill="white"/>
<path d="M165.291 57.0921C165.291 56.8609 165.221 56.6759 165.058 56.5372C164.895 56.3984 164.615 56.2597 164.195 56.1441C163.612 55.9822 163.145 55.7741 162.842 55.5197C162.539 55.2654 162.375 54.9185 162.375 54.5023C162.375 54.063 162.539 53.7161 162.888 53.4155C163.238 53.1149 163.682 52.9993 164.241 52.9993C164.825 52.9993 165.291 53.1611 165.664 53.4617C166.014 53.7855 166.178 54.1554 166.178 54.6179V54.641H165.291C165.291 54.3636 165.198 54.1323 165.011 53.9705C164.825 53.8086 164.568 53.7161 164.241 53.7161C163.938 53.7161 163.705 53.7855 163.542 53.9242C163.378 54.063 163.285 54.2479 163.285 54.4792C163.285 54.6873 163.378 54.8492 163.565 54.9879C163.752 55.1266 164.055 55.2423 164.475 55.381C165.058 55.5429 165.478 55.751 165.781 56.0285C166.084 56.3059 166.224 56.6528 166.224 57.069C166.224 57.5084 166.038 57.8783 165.688 58.1327C165.338 58.3871 164.871 58.5258 164.288 58.5258C163.728 58.5258 163.262 58.3871 162.842 58.0865C162.422 57.7858 162.235 57.3927 162.235 56.8609V56.8378H163.122C163.122 57.1615 163.238 57.4159 163.472 57.5777C163.705 57.7396 163.962 57.8321 164.288 57.8321C164.615 57.8321 164.871 57.7627 165.035 57.624C165.198 57.5084 165.291 57.3234 165.291 57.0921Z" fill="white"/>
<path d="M61.2789 53.2073V56.8146C61.2789 57.4158 61.069 57.9014 60.6724 58.2483C60.2759 58.5951 59.7394 58.757 59.1095 58.757C58.4797 58.757 57.9665 58.5951 57.57 58.2483C57.1734 57.9014 56.9868 57.4389 56.9868 56.8146V53.2073H57.8966V56.8146C57.8966 57.2077 58.0132 57.5083 58.2231 57.7164C58.4331 57.9245 58.7363 58.0402 59.0862 58.0402C59.4594 58.0402 59.7627 57.9245 59.996 57.7164C60.2292 57.5083 60.3459 57.2077 60.3459 56.8146V53.2073H61.2789Z" fill="white"/>
</g>
<defs>
<clipPath id="clip0">
<rect width="169" height="61" fill="white"/>
</clipPath>
</defs>
</svg>
