<svg width="169" height="61" viewBox="0 0 169 61" fill="none" xmlns="http://www.w3.org/2000/svg">
<g clip-path="url(#clip0)">
<path d="M80.3834 34.8241C80.1734 36.0034 79.6136 36.9052 78.8671 37.5295C78.0974 38.1308 76.9777 38.547 75.4148 38.7088C73.5954 38.8938 71.2161 38.9863 68.2303 38.9863C64.9179 38.9863 62.4687 38.8013 60.9058 38.4545C59.2729 38.0845 58.1533 37.4139 57.4535 36.3965C56.7537 35.4253 56.2872 34.0148 56.0772 32.0724C55.9373 30.4075 55.8206 27.3552 55.8206 22.8923C55.8206 19.2619 55.9373 16.2327 56.0772 13.8047C56.3338 11.8161 56.777 10.3825 57.4535 9.52688C58.1766 8.44008 59.3429 7.76949 60.9058 7.39951C62.492 7.02954 64.9646 6.86767 68.2303 6.86767C71.0994 6.86767 73.3388 6.98329 75.0183 7.14515C76.5345 7.39951 77.6308 7.83886 78.284 8.39383C78.9838 9.11066 79.3803 9.87374 79.5203 10.6137C79.6602 11.3305 79.8935 13.0185 80.1734 15.6778H84.862C84.6754 12.7642 84.4188 10.6368 84.0689 9.20315C83.7424 7.72324 83.0426 6.49769 81.9696 5.57275C80.9432 4.64781 79.4037 3.9541 77.2576 3.561C75.2282 3.1679 72.2424 2.98291 68.2536 2.98291C63.8916 2.98291 60.7425 3.19102 58.7831 3.63037C56.6837 4.00035 55.0509 4.85592 53.9312 6.17396C52.7415 7.46889 51.9718 9.36502 51.5752 11.8855C51.1787 14.406 50.9921 18.0826 50.9921 22.8461C51.062 27.6558 51.2487 31.2862 51.5752 33.7835C51.9718 36.3271 52.7415 38.2464 53.9079 39.5413C55.0975 40.8362 56.7304 41.6918 58.8764 42.0849C60.8825 42.5242 64.0315 42.7323 68.277 42.7323C72.2658 42.7323 75.3915 42.5474 77.6775 42.2005C79.7769 41.8305 81.4097 41.2293 82.6227 40.2581C83.7424 39.3563 84.4655 38.0383 84.9087 36.3271C85.2819 34.6391 85.4919 32.2574 85.4919 29.2051H80.8032C80.7566 31.5868 80.64 33.4598 80.3834 34.8241Z" fill="#FF664E"/>
<path d="M124.4 23.6322C123.537 22.9154 122.161 22.2911 120.202 21.8055C121.835 21.2967 123.001 20.6262 123.724 19.8168C124.564 19.0538 125.077 18.1519 125.287 17.0189C125.543 15.8627 125.683 14.4984 125.683 12.8798C125.683 10.4749 125.287 8.53253 124.564 7.05262C123.771 5.64209 122.558 4.64777 121.018 4.06968C119.455 3.49159 117.309 3.21411 114.627 3.21411H109.728H93.8661V42.3854H109.728H115.863C118.592 42.3854 120.808 41.9461 122.511 41.0905C124.144 40.1656 125.31 38.8938 125.963 37.2751C126.616 35.6565 126.943 33.5754 126.943 31.1243C126.943 29.2513 126.756 27.7482 126.407 26.592C126.033 25.3896 125.38 24.4184 124.4 23.6322ZM98.6481 7.05262H109.705H114.09C115.793 7.05262 117.169 7.23761 118.196 7.58447C119.129 7.97757 119.828 8.62503 120.202 9.45748C120.598 10.3593 120.785 11.608 120.785 13.2266C120.785 15.1228 120.528 16.6027 120.015 17.5738C119.479 18.5913 118.639 19.2619 117.473 19.7012C116.306 20.0943 114.603 20.2793 112.364 20.2793H109.705H98.6481V7.05262ZM121.018 36.2346C120.435 37.252 119.455 37.8532 118.126 38.1076C116.866 38.3851 114.79 38.5007 111.967 38.5007H109.728H98.6714V24.1178H109.728H113.974C116.26 24.1178 117.916 24.3259 118.989 24.6959C120.108 25.1353 120.878 25.8058 121.345 26.7539C121.811 27.6789 122.045 29.205 122.045 31.3555C121.998 33.5291 121.671 35.1478 121.018 36.2346Z" fill="#FF664E"/>
<path d="M133.171 3.21411V7.12199H147.331V42.3854H152.229V7.12199H166.202V3.21411H133.171Z" fill="#FF664E"/>
<path d="M3.54609 31.4019H11.5471C12.4801 31.4019 13.2499 32.1881 13.2499 33.113V41.0675C13.2499 41.9925 12.4801 42.7787 11.5471 42.7787H3.54609C2.61303 42.7787 1.84326 41.9925 1.84326 41.0675V33.113C1.84326 32.1881 2.58971 31.4019 3.54609 31.4019Z" fill="#3C8ACA"/>
<path d="M17.8218 31.4019H25.8228C26.7559 31.4019 27.5256 32.1881 27.5256 33.113V41.0675C27.5256 41.9925 26.7559 42.7787 25.8228 42.7787H17.8218C16.8888 42.7787 16.119 41.9925 16.119 41.0675V33.113C16.119 32.1881 16.8888 31.4019 17.8218 31.4019Z" fill="#3C8ACA"/>
<path d="M17.8218 17.2734H25.8228C26.7559 17.2734 27.5256 18.0365 27.5256 18.9615V26.9391C27.5256 27.864 26.7559 28.6271 25.8228 28.6271H17.8218C16.8888 28.6271 16.119 27.864 16.119 26.9391V18.9615C16.119 18.0134 16.8888 17.2734 17.8218 17.2734Z" fill="#3C8ACA"/>
<path d="M32.1208 31.4019H40.0985C41.0315 31.4019 41.8246 32.1881 41.8246 33.113V41.0675C41.8246 41.9925 41.0315 42.7787 40.0985 42.7787H32.1208C31.1878 42.7787 30.3947 41.9925 30.3947 41.0675V33.113C30.3947 32.1881 31.1644 31.4019 32.1208 31.4019Z" fill="#3C8ACA"/>
<path d="M32.1208 17.2734H40.0985C41.0315 17.2734 41.8246 18.0365 41.8246 18.9615V26.9391C41.8246 27.864 41.0315 28.6271 40.0985 28.6271H32.1208C31.1878 28.6271 30.3947 27.864 30.3947 26.9391V18.9615C30.3947 18.0134 31.1644 17.2734 32.1208 17.2734Z" fill="#3C8ACA"/>
<path d="M32.1208 3.09863H40.0985C41.0315 3.09863 41.8246 3.86171 41.8246 4.78665V12.7643C41.8246 13.6892 41.0315 14.4523 40.0985 14.4523H32.1208C31.1878 14.4523 30.3947 13.6892 30.3947 12.7643V4.78665C30.3947 3.86171 31.1644 3.09863 32.1208 3.09863Z" fill="#FF664E"/>
<path d="M38.2322 14.4523L30.3945 4.78665C30.3945 3.86171 31.1876 3.09863 32.1206 3.09863H40.0983C41.0313 3.09863 41.8244 3.86171 41.8244 4.78665V12.7643C41.8244 13.6892 41.0313 14.4523 40.0983 14.4523" fill="url(#paint0_linear)"/>
<path d="M38.2322 28.6037L30.3945 18.9612C30.3945 18.0363 31.1876 17.2732 32.1206 17.2732H40.0983C41.0313 17.2732 41.8244 18.0363 41.8244 18.9612V26.9388C41.8244 27.8638 41.0313 28.6269 40.0983 28.6269" fill="url(#paint1_linear)"/>
<path d="M23.9565 28.5808L16.1188 18.9383C16.1188 18.0133 16.9119 17.2502 17.8449 17.2502H25.8226C26.7556 17.2502 27.5487 18.0133 27.5487 18.9383V26.9159C27.5487 27.8408 26.7556 28.6039 25.8226 28.6039" fill="url(#paint2_linear)"/>
<path d="M38.2322 42.7555L30.3945 33.0899C30.3945 32.1649 31.1876 31.4019 32.1206 31.4019H40.0983C41.0313 31.4019 41.8244 32.1649 41.8244 33.0899V41.0675C41.8244 41.9925 41.0313 42.7555 40.0983 42.7555" fill="url(#paint3_linear)"/>
<path d="M23.9562 42.8018L16.0952 33.1592C16.0952 32.2343 16.8883 31.4712 17.8214 31.4712H25.799C26.7321 31.4712 27.5252 32.2343 27.5252 33.1592V41.1369C27.5252 42.0618 26.7321 42.8249 25.799 42.8249" fill="url(#paint4_linear)"/>
<path d="M9.65727 42.8018L1.81958 33.1592C1.81958 32.2343 2.61268 31.4712 3.54574 31.4712H11.5234C12.4564 31.4712 13.2495 32.2343 13.2495 33.1592V41.1369C13.2495 42.0618 12.4564 42.8249 11.5234 42.8249" fill="url(#paint5_linear)"/>
<path d="M6.39197 56.7222C6.4153 57.3003 6.22869 57.7396 5.85546 58.0633C5.48224 58.3871 4.99239 58.5721 4.36257 58.5721C3.73276 58.5721 3.21958 58.3639 2.82303 57.9246C2.42648 57.5084 2.23987 56.9534 2.23987 56.3059V55.2654C2.23987 54.6179 2.42648 54.063 2.82303 53.6467C3.21958 53.2305 3.70943 52.9993 4.33925 52.9993C4.99239 52.9993 5.48224 53.1611 5.85546 53.4849C6.22869 53.8086 6.39197 54.2479 6.39197 54.826V54.8492H5.50557C5.50557 54.4792 5.41226 54.2017 5.20232 54.0167C5.01571 53.8317 4.71247 53.7392 4.33925 53.7392C3.96602 53.7392 3.68611 53.878 3.45284 54.1786C3.2429 54.4792 3.12627 54.826 3.12627 55.2885V56.3291C3.12627 56.7684 3.2429 57.1384 3.45284 57.439C3.66278 57.7396 3.96602 57.8783 4.36257 57.8783C4.7358 57.8783 5.01571 57.7858 5.20232 57.5777C5.38894 57.3927 5.48224 57.1153 5.48224 56.7453L6.39197 56.7222Z" fill="#3C8ACA"/>
<path d="M11.1266 56.0515H8.98052V57.7627H11.4998V58.4795H8.09412V53.0686H11.4998V53.7854H9.00385V55.3116H11.1499L11.1266 56.0515Z" fill="#3C8ACA"/>
<path d="M17.4017 58.4795H16.4919L14.066 54.5716H14.0427V58.4563H13.1329V53.0454H14.0427L16.4686 56.9533H16.4919V53.0685H17.4017V58.4795Z" fill="#3C8ACA"/>
<path d="M23.0468 53.8086H21.3673V58.5027H20.4576V53.8086H18.8014V53.0918H23.0468V53.8086Z" fill="#3C8ACA"/>
<path d="M27.5722 56.0515H25.4262V57.7627H27.9455V58.4795H24.5165V53.0686H27.9221V53.7854H25.4262V55.3116H27.5722V56.0515Z" fill="#3C8ACA"/>
<path d="M30.4879 56.2365V58.4795H29.5782V53.0686H31.4443C32.0508 53.0686 32.5173 53.2073 32.8439 53.4848C33.1705 53.7623 33.3337 54.1554 33.3337 54.641C33.3337 54.9185 33.2638 55.1728 33.1238 55.3578C32.9839 55.5428 32.7739 55.7278 32.494 55.8434C32.7972 55.9359 33.0305 56.0978 33.1705 56.3059C33.3104 56.514 33.3804 56.7915 33.3804 57.1152V57.5546C33.3804 57.7164 33.4037 57.8783 33.4504 58.0171C33.497 58.1558 33.567 58.2945 33.6603 58.3639V58.4564H32.7273C32.634 58.3639 32.564 58.2483 32.5406 58.0633C32.5173 57.8783 32.494 57.7164 32.494 57.5546V57.1152C32.494 56.8377 32.424 56.6065 32.2607 56.4446C32.0974 56.2828 31.8875 56.1903 31.6076 56.1903H30.4879V56.2365ZM30.4879 55.5197H31.3977C31.7709 55.5197 32.0275 55.4503 32.1907 55.3116C32.354 55.1728 32.4473 54.9647 32.4473 54.6873C32.4473 54.4098 32.354 54.2017 32.1907 54.0398C32.0275 53.8779 31.7709 53.8086 31.4443 53.8086H30.4879V55.5197Z" fill="#3C8ACA"/>
<path d="M42.2442 56.2597C42.2442 56.9303 42.0343 57.4621 41.6144 57.9015C41.1945 58.3408 40.658 58.5489 39.9816 58.5489C39.3284 58.5489 38.7919 58.3408 38.3954 57.9015C37.9755 57.4621 37.7889 56.9303 37.7889 56.2597V55.2885C37.7889 54.641 37.9988 54.0861 38.3954 53.6467C38.7919 53.2074 39.3284 52.9993 39.9816 52.9993C40.658 52.9993 41.1945 53.2074 41.6144 53.6467C42.0343 54.0861 42.2442 54.641 42.2442 55.2885V56.2597ZM41.3345 55.2885C41.3345 54.8492 41.2179 54.4792 40.9613 54.1786C40.7047 53.878 40.4014 53.7392 39.9816 53.7392C39.585 53.7392 39.2584 53.878 39.0252 54.1786C38.7919 54.4792 38.6753 54.8492 38.6753 55.2885V56.2597C38.6753 56.7222 38.7919 57.0921 39.0252 57.3696C39.2584 57.6702 39.585 57.809 39.9816 57.809C40.4014 57.809 40.728 57.6702 40.9613 57.3696C41.1945 57.069 41.3112 56.699 41.3112 56.2366V55.2885H41.3345Z" fill="#3C8ACA"/>
<path d="M47.1192 56.1904H44.9265V58.5027H44.0168V53.0918H47.5158V53.8086H44.9265V55.4504H47.1192V56.1904Z" fill="#3C8ACA"/>
<path d="M51.7847 58.4795V53.0686H53.5808C54.1873 53.0686 54.6538 53.1842 55.0037 53.4386C55.3536 53.6929 55.5169 54.0629 55.5169 54.5485C55.5169 54.7797 55.4469 55.011 55.307 55.196C55.167 55.381 54.9804 55.5428 54.7471 55.6353C55.097 55.6816 55.3769 55.8434 55.5635 56.0747C55.7502 56.3059 55.8435 56.6065 55.8435 56.9302C55.8435 57.439 55.6802 57.8321 55.3303 58.0864C54.9804 58.3408 54.5372 58.4795 53.954 58.4795H51.7847ZM52.6944 55.3578H53.6741C53.954 55.3578 54.1873 55.2885 54.3506 55.1497C54.5139 55.011 54.6072 54.826 54.6072 54.5948C54.6072 54.3173 54.5139 54.1323 54.3506 53.9935C54.1873 53.8548 53.9307 53.8086 53.6041 53.8086H52.7177L52.6944 55.3578ZM52.6944 56.0284V57.7627H53.9307C54.2339 57.7627 54.4905 57.6933 54.6538 57.5546C54.8171 57.4158 54.9104 57.2077 54.9104 56.9302C54.9104 56.6528 54.8171 56.4446 54.6538 56.2828C54.4905 56.1209 54.2573 56.0284 53.954 56.0284H53.884H52.6944Z" fill="#3C8ACA"/>
<path d="M65.3838 57.0921C65.3838 56.8609 65.3138 56.6759 65.1505 56.5372C64.9872 56.3984 64.7073 56.2597 64.2874 56.1441C63.7043 55.9822 63.2377 55.7741 62.9345 55.5197C62.6079 55.2654 62.468 54.9185 62.468 54.5023C62.468 54.063 62.6312 53.7161 62.9811 53.4155C63.331 53.138 63.7742 52.9993 64.3341 52.9993C64.9172 52.9993 65.3838 53.1611 65.757 53.4617C66.1069 53.7855 66.2702 54.1554 66.2702 54.6179V54.641H65.3838C65.3838 54.3636 65.2905 54.1323 65.1038 53.9705C64.9172 53.8086 64.6606 53.7161 64.3341 53.7161C64.0308 53.7161 63.7976 53.7855 63.6343 53.9242C63.471 54.063 63.3777 54.2479 63.3777 54.4792C63.3777 54.6873 63.471 54.8492 63.6576 54.9879C63.8442 55.1266 64.1475 55.2423 64.5673 55.381C65.1505 55.5429 65.5704 55.751 65.8736 56.0285C66.1769 56.3059 66.3168 56.6528 66.3168 57.069C66.3168 57.5084 66.1302 57.8783 65.7803 58.1327C65.4304 58.4102 64.9639 58.5258 64.3807 58.5258C63.8209 58.5258 63.3544 58.3871 62.9345 58.0865C62.5146 57.7858 62.328 57.3927 62.328 56.8609V56.8378H63.2144C63.2144 57.1615 63.331 57.4159 63.5643 57.5777C63.7976 57.7396 64.0542 57.8321 64.3807 57.8321C64.7073 57.8321 64.9639 57.7627 65.1272 57.624C65.2905 57.5084 65.3838 57.3234 65.3838 57.0921Z" fill="#3C8ACA"/>
<path d="M68.9992 58.4795H68.0895V53.0686H68.9992V58.4795Z" fill="#3C8ACA"/>
<path d="M75.2977 58.4795H74.3879L71.962 54.5716H71.9387V58.4563H71.0289V53.0454H71.9387L74.3646 56.9533H74.3879V53.0685H75.2977V58.4795Z" fill="#3C8ACA"/>
<path d="M80.2901 56.0515H78.144V57.7627H80.6633V58.4795H77.2343V53.0686H80.64V53.7854H78.144V55.3116H80.2901V56.0515Z" fill="#3C8ACA"/>
<path d="M85.1644 57.0921C85.1644 56.8609 85.0944 56.6759 84.9311 56.5372C84.7678 56.3984 84.4879 56.2597 84.068 56.1441C83.4849 55.9822 83.0183 55.7741 82.7151 55.5197C82.3885 55.2654 82.2486 54.9185 82.2486 54.5023C82.2486 54.063 82.4118 53.7161 82.7617 53.4155C83.1116 53.138 83.5548 52.9993 84.1147 52.9993C84.6978 52.9993 85.1644 53.1611 85.5376 53.4617C85.8875 53.7855 86.0508 54.1554 86.0508 54.6179V54.641H85.141C85.141 54.3636 85.0477 54.1323 84.8611 53.9705C84.6745 53.8086 84.4179 53.7161 84.0913 53.7161C83.7881 53.7161 83.5548 53.7855 83.3915 53.9242C83.2283 54.063 83.135 54.2479 83.135 54.4792C83.135 54.6873 83.2283 54.8492 83.4149 54.9879C83.6015 55.1266 83.9047 55.2423 84.3246 55.381C84.9078 55.5429 85.3276 55.751 85.6309 56.0285C85.9341 56.3059 86.0741 56.6528 86.0741 57.069C86.0741 57.5084 85.8875 57.8783 85.5376 58.1327C85.1877 58.4102 84.7212 58.5258 84.138 58.5258C83.5782 58.5258 83.1116 58.3871 82.6918 58.0865C82.2719 57.7858 82.0853 57.3927 82.0853 56.8609V56.8378H82.9717C82.9717 57.1615 83.0883 57.4159 83.3216 57.5777C83.5548 57.7396 83.8114 57.8321 84.138 57.8321C84.4646 57.8321 84.7212 57.7627 84.8844 57.624C85.0711 57.5084 85.1644 57.3234 85.1644 57.0921Z" fill="#3C8ACA"/>
<path d="M90.6702 57.0921C90.6702 56.8609 90.6002 56.6759 90.4369 56.5372C90.2736 56.3984 89.9937 56.2597 89.5738 56.1441C88.9906 55.9822 88.5241 55.7741 88.2209 55.5197C87.9176 55.2654 87.7543 54.9185 87.7543 54.5023C87.7543 54.063 87.9176 53.7161 88.2675 53.4155C88.6174 53.1149 89.0606 52.9993 89.6205 52.9993C90.2036 52.9993 90.6702 53.1611 91.0434 53.4617C91.3933 53.7855 91.5566 54.1554 91.5566 54.6179V54.641H90.6702C90.6702 54.3636 90.5769 54.1323 90.3902 53.9705C90.2036 53.8086 89.947 53.7161 89.6205 53.7161C89.3172 53.7161 89.084 53.7855 88.9207 53.9242C88.7574 54.063 88.6641 54.2479 88.6641 54.4792C88.6641 54.6873 88.7574 54.8492 88.944 54.9879C89.1306 55.1266 89.4339 55.2423 89.8537 55.381C90.4369 55.5429 90.8568 55.751 91.16 56.0285C91.4633 56.3059 91.6032 56.6528 91.6032 57.069C91.6032 57.5084 91.4166 57.8783 91.0667 58.1327C90.7168 58.3871 90.2503 58.5258 89.6671 58.5258C89.1073 58.5258 88.6408 58.3871 88.2209 58.0865C87.801 57.7858 87.6144 57.3927 87.6144 56.8609V56.8378H88.5008C88.5008 57.1615 88.6174 57.4159 88.8507 57.5777C89.084 57.7396 89.3405 57.8321 89.6671 57.8321C89.9937 57.8321 90.2503 57.7627 90.4136 57.624C90.5769 57.5084 90.6702 57.3234 90.6702 57.0921Z" fill="#3C8ACA"/>
<path d="M98.2507 56.5603H96.0347V55.8435H98.2507V56.5603Z" fill="#3C8ACA"/>
<path d="M106.741 53.8086H105.062V58.5027H104.152V53.8086H102.496V53.0918H106.741V53.8086Z" fill="#3C8ACA"/>
<path d="M111.29 56.0515H109.144V57.7627H111.663V58.4795H108.235V53.0686H111.64V53.7854H109.144V55.3116H111.29V56.0515Z" fill="#3C8ACA"/>
<path d="M117.262 56.7222C117.285 57.3003 117.098 57.7396 116.725 58.0633C116.352 58.3871 115.862 58.5721 115.232 58.5721C114.602 58.5721 114.089 58.3639 113.693 57.9246C113.296 57.5084 113.11 56.9534 113.11 56.3059V55.2654C113.11 54.6179 113.296 54.063 113.693 53.6467C114.089 53.2305 114.579 52.9993 115.209 52.9993C115.862 52.9993 116.352 53.1611 116.725 53.4849C117.098 53.8086 117.262 54.2479 117.262 54.826V54.8492H116.399C116.399 54.4792 116.305 54.2017 116.095 54.0167C115.909 53.8317 115.605 53.7392 115.232 53.7392C114.859 53.7392 114.579 53.878 114.346 54.1786C114.136 54.4792 114.019 54.826 114.019 55.2885V56.3291C114.019 56.7684 114.136 57.1384 114.346 57.439C114.556 57.7396 114.859 57.8783 115.256 57.8783C115.629 57.8783 115.909 57.7858 116.095 57.5777C116.282 57.3927 116.375 57.1153 116.375 56.7453L117.262 56.7222Z" fill="#3C8ACA"/>
<path d="M123.21 58.4795H122.301V56.1672H119.851V58.4795H118.965V53.0686H119.875V55.4503H122.324V53.0686H123.234V58.4795H123.21Z" fill="#3C8ACA"/>
<path d="M129.415 58.4795H128.505L126.079 54.5716H126.056V58.4563H125.146V53.0454H126.056L128.482 56.9533H128.505V53.0685H129.415V58.4795Z" fill="#3C8ACA"/>
<path d="M135.643 56.2597C135.643 56.9303 135.433 57.4621 135.013 57.9015C134.593 58.3408 134.057 58.5489 133.38 58.5489C132.727 58.5489 132.191 58.3408 131.794 57.9015C131.374 57.4621 131.188 56.9303 131.188 56.2597V55.2885C131.188 54.641 131.397 54.0861 131.794 53.6467C132.214 53.2074 132.727 52.9993 133.38 52.9993C134.057 52.9993 134.593 53.2074 135.013 53.6467C135.433 54.0861 135.643 54.641 135.643 55.2885V56.2597ZM134.733 55.2885C134.733 54.8492 134.617 54.4792 134.36 54.1786C134.127 53.878 133.8 53.7392 133.38 53.7392C132.984 53.7392 132.657 53.878 132.424 54.1786C132.191 54.4792 132.074 54.8492 132.074 55.2885V56.2597C132.074 56.7222 132.191 57.0921 132.424 57.3696C132.657 57.6702 132.984 57.809 133.38 57.809C133.8 57.809 134.127 57.6702 134.36 57.3696C134.593 57.069 134.71 56.699 134.71 56.2366L134.733 55.2885Z" fill="#3C8ACA"/>
<path d="M138.326 57.7627H140.892V58.4795H137.417V53.0686H138.326V57.7627Z" fill="#3C8ACA"/>
<path d="M146.654 56.2597C146.654 56.9303 146.444 57.4621 146.024 57.9015C145.604 58.3408 145.067 58.5489 144.391 58.5489C143.738 58.5489 143.201 58.3408 142.805 57.9015C142.385 57.4621 142.198 56.9303 142.198 56.2597V55.2885C142.198 54.641 142.408 54.0861 142.805 53.6467C143.225 53.2074 143.738 52.9993 144.391 52.9993C145.067 52.9993 145.604 53.2074 146.024 53.6467C146.444 54.0861 146.654 54.641 146.654 55.2885V56.2597ZM145.744 55.2885C145.744 54.8492 145.627 54.4792 145.371 54.1786C145.137 53.878 144.811 53.7392 144.391 53.7392C143.994 53.7392 143.668 53.878 143.435 54.1786C143.201 54.4792 143.085 54.8492 143.085 55.2885V56.2597C143.085 56.7222 143.201 57.0921 143.435 57.3696C143.668 57.6702 143.994 57.809 144.391 57.809C144.811 57.809 145.137 57.6702 145.371 57.3696C145.604 57.069 145.721 56.699 145.721 56.2366L145.744 55.2885Z" fill="#3C8ACA"/>
<path d="M152.461 57.7627C152.321 57.9708 152.065 58.1558 151.738 58.3177C151.412 58.4796 150.992 58.5721 150.455 58.5721C149.802 58.5721 149.289 58.3639 148.869 57.9477C148.449 57.5315 148.239 56.9996 148.239 56.3522V55.2191C148.239 54.5717 148.449 54.0398 148.846 53.6236C149.242 53.2074 149.756 52.9993 150.409 52.9993C151.039 52.9993 151.528 53.1611 151.902 53.4849C152.252 53.8086 152.438 54.2248 152.415 54.7335V54.7567H151.552C151.552 54.4561 151.458 54.2017 151.272 54.0167C151.085 53.8317 150.805 53.7392 150.455 53.7392C150.082 53.7392 149.779 53.878 149.546 54.1554C149.312 54.4329 149.196 54.7798 149.196 55.2191V56.3522C149.196 56.7915 149.312 57.1384 149.569 57.439C149.802 57.7165 150.129 57.8552 150.502 57.8552C150.805 57.8552 151.015 57.8321 151.202 57.7627C151.365 57.6934 151.505 57.624 151.598 57.5315V56.4216H150.455V55.751H152.508V57.7627H152.461Z" fill="#3C8ACA"/>
<path d="M155.354 58.4795H154.445V53.0686H155.354V58.4795Z" fill="#3C8ACA"/>
<path d="M160.416 56.0515H158.27V57.7627H160.789V58.4795H157.36V53.0686H160.766V53.7854H158.27V55.3116H160.416V56.0515Z" fill="#3C8ACA"/>
<path d="M165.291 57.0921C165.291 56.8609 165.221 56.6759 165.058 56.5372C164.895 56.3984 164.615 56.2597 164.195 56.1441C163.612 55.9822 163.145 55.7741 162.842 55.5197C162.539 55.2654 162.375 54.9185 162.375 54.5023C162.375 54.063 162.539 53.7161 162.889 53.4155C163.238 53.1149 163.682 52.9993 164.241 52.9993C164.825 52.9993 165.291 53.1611 165.664 53.4617C166.014 53.7855 166.178 54.1554 166.178 54.6179V54.641H165.291C165.291 54.3636 165.198 54.1323 165.011 53.9705C164.825 53.8086 164.568 53.7161 164.241 53.7161C163.938 53.7161 163.705 53.7855 163.542 53.9242C163.378 54.063 163.285 54.2479 163.285 54.4792C163.285 54.6873 163.378 54.8492 163.565 54.9879C163.752 55.1266 164.055 55.2423 164.475 55.381C165.058 55.5429 165.478 55.751 165.781 56.0285C166.084 56.3059 166.224 56.6528 166.224 57.069C166.224 57.5084 166.038 57.8783 165.688 58.1327C165.338 58.3871 164.871 58.5258 164.288 58.5258C163.728 58.5258 163.262 58.3871 162.842 58.0865C162.422 57.7858 162.235 57.3927 162.235 56.8609V56.8378H163.122C163.122 57.1615 163.238 57.4159 163.472 57.5777C163.705 57.7396 163.962 57.8321 164.288 57.8321C164.615 57.8321 164.871 57.7627 165.035 57.624C165.198 57.5084 165.291 57.3234 165.291 57.0921Z" fill="#3C8ACA"/>
<path d="M61.2789 53.2073V56.8145C61.2789 57.4158 61.0689 57.9014 60.6724 58.2482C60.2758 58.5951 59.7393 58.7569 59.1095 58.7569C58.4797 58.7569 57.9665 58.5951 57.5699 58.2482C57.1734 57.9014 56.9868 57.4389 56.9868 56.8145V53.2073H57.8965V56.8145C57.8965 57.2077 58.0131 57.5083 58.2231 57.7164C58.433 57.9245 58.7363 58.0401 59.0862 58.0401C59.4594 58.0401 59.7626 57.9245 59.9959 57.7164C60.2292 57.5083 60.3458 57.2077 60.3458 56.8145V53.2073H61.2789Z" fill="#3C8ACA"/>
</g>
<defs>
<linearGradient id="paint0_linear" x1="36.1094" y1="3.09863" x2="36.1094" y2="14.4523" gradientUnits="userSpaceOnUse">
<stop stop-color="#FBC4AB"/>
<stop offset="0.1509" stop-color="#F8AF94"/>
<stop offset="0.4063" stop-color="#F49177"/>
<stop offset="0.6415" stop-color="#F17D64"/>
<stop offset="0.847" stop-color="#F06F5A"/>
<stop offset="1" stop-color="#EF6B56"/>
</linearGradient>
<linearGradient id="paint1_linear" x1="36.1094" y1="17.2732" x2="36.1094" y2="28.6269" gradientUnits="userSpaceOnUse">
<stop stop-color="#79B6E3"/>
<stop offset="0.0770605" stop-color="#73B0E0"/>
<stop offset="0.4511" stop-color="#579BD4"/>
<stop offset="0.7718" stop-color="#448ECC"/>
<stop offset="1" stop-color="#3C8ACA"/>
</linearGradient>
<linearGradient id="paint2_linear" x1="21.8338" y1="17.2502" x2="21.8338" y2="28.6039" gradientUnits="userSpaceOnUse">
<stop stop-color="#79B6E3"/>
<stop offset="0.0770605" stop-color="#73B0E0"/>
<stop offset="0.4511" stop-color="#579BD4"/>
<stop offset="0.7718" stop-color="#448ECC"/>
<stop offset="1" stop-color="#3C8ACA"/>
</linearGradient>
<linearGradient id="paint3_linear" x1="36.1094" y1="31.4161" x2="36.1094" y2="42.7698" gradientUnits="userSpaceOnUse">
<stop stop-color="#79B6E3"/>
<stop offset="0.0770605" stop-color="#73B0E0"/>
<stop offset="0.4511" stop-color="#579BD4"/>
<stop offset="0.7718" stop-color="#448ECC"/>
<stop offset="1" stop-color="#3C8ACA"/>
</linearGradient>
<linearGradient id="paint4_linear" x1="21.8102" y1="31.4712" x2="21.8102" y2="42.8249" gradientUnits="userSpaceOnUse">
<stop stop-color="#79B6E3"/>
<stop offset="0.0770605" stop-color="#73B0E0"/>
<stop offset="0.4511" stop-color="#579BD4"/>
<stop offset="0.7718" stop-color="#448ECC"/>
<stop offset="1" stop-color="#3C8ACA"/>
</linearGradient>
<linearGradient id="paint5_linear" x1="7.53456" y1="31.4712" x2="7.53456" y2="42.8249" gradientUnits="userSpaceOnUse">
<stop stop-color="#79B6E3"/>
<stop offset="0.0770605" stop-color="#73B0E0"/>
<stop offset="0.4511" stop-color="#579BD4"/>
<stop offset="0.7718" stop-color="#448ECC"/>
<stop offset="1" stop-color="#3C8ACA"/>
</linearGradient>
<clipPath id="clip0">
<rect width="169" height="61" fill="white"/>
</clipPath>
</defs>
</svg>
