<svg width="28" height="29" viewBox="0 0 28 29" fill="none" xmlns="http://www.w3.org/2000/svg">
<g clip-path="url(#clip0)">
<path d="M28 7.05271C26.9335 7.51786 25.773 7.85263 24.5776 7.98301C25.8187 7.23749 26.7481 6.05968 27.1914 4.67057C26.0268 5.37108 24.751 5.86229 23.4205 6.12241C22.8644 5.52133 22.1919 5.04248 21.4448 4.7157C20.6977 4.38892 19.892 4.22122 19.078 4.22304C15.7845 4.22304 13.1358 6.92233 13.1358 10.2348C13.1358 10.6999 13.1916 11.1651 13.2822 11.6126C8.35068 11.3518 3.95241 8.9697 1.02836 5.32249C0.49557 6.24263 0.216368 7.29031 0.219805 8.35654C0.219805 10.4427 1.26884 12.2821 2.86853 13.364C1.92581 13.3264 1.00516 13.0644 0.181469 12.5993V12.6733C0.181469 15.5946 2.22377 18.0155 4.94568 18.5723C4.43461 18.7065 3.90887 18.7752 3.38084 18.7767C2.99399 18.7767 2.62805 18.7379 2.25862 18.685C3.01142 21.0672 5.20358 22.7974 7.81397 22.8538C5.77166 24.4712 3.21356 25.4227 0.435885 25.4227C-0.0624923 25.4227 -0.522533 25.4051 -1 25.3487C1.63478 27.0578 4.76097 28.0445 8.12763 28.0445C19.0571 28.0445 25.0376 18.8894 25.0376 10.9431C25.0376 10.6823 25.0376 10.4215 25.0202 10.1608C26.1773 9.30447 27.1914 8.24378 28 7.05271Z" fill="#3C8AC9"/>
</g>
<defs>
<clipPath id="clip0">
<rect width="28" height="29" fill="white"/>
</clipPath>
</defs>
</svg>
