<svg width="30" height="29" viewBox="0 0 30 29" fill="none" xmlns="http://www.w3.org/2000/svg">
<g clip-path="url(#clip0)">
<path d="M6.81018 28.9998V9.43352H0.379413V28.9998H6.81018ZM3.59563 6.76047C5.83815 6.76047 7.23402 5.25801 7.23402 3.38043C7.19223 1.46051 5.83824 -0.000244141 3.63819 -0.000244141C1.43848 -0.000244141 0 1.46054 0 3.38043C0 5.25809 1.39552 6.76047 3.55365 6.76047H3.59543H3.59563ZM10.3696 28.9998H16.8004V18.073C16.8004 17.4882 16.8421 16.9041 17.012 16.486C17.4769 15.3176 18.535 14.1075 20.3114 14.1075C22.6385 14.1075 23.5694 15.9018 23.5694 18.5321V28.9996H29.9998V17.7805C29.9998 11.7705 26.8272 8.97416 22.5961 8.97416C19.127 8.97416 17.6038 10.9352 16.7576 12.2708H16.8005V9.43311H10.3697C10.4541 11.2691 10.3697 28.9994 10.3697 28.9994L10.3696 28.9998Z" fill="#3C8AC9"/>
</g>
<defs>
<clipPath id="clip0">
<rect width="30" height="29" fill="white"/>
</clipPath>
</defs>
</svg>
