<svg width="29" height="29" viewBox="0 0 29 29" fill="none" xmlns="http://www.w3.org/2000/svg">
<path d="M28.3859 10.9325C28.2175 10.3305 27.8965 9.78216 27.454 9.34062C27.0115 8.89908 26.4625 8.57928 25.8601 8.41218C23.599 7.80771 14.5094 7.80771 14.5094 7.80771C14.5094 7.80771 5.43688 7.79321 3.15223 8.41218C2.55084 8.58001 2.00291 8.90015 1.56142 9.34165C1.11992 9.78315 0.799782 10.3311 0.631944 10.9325C0.202563 13.2472 -0.00891422 15.5971 0.000287809 17.9514C-0.00390187 20.2943 0.207542 22.6326 0.631944 24.9367C0.800325 25.5385 1.12056 26.0868 1.5619 26.5291C2.00325 26.9714 2.55088 27.2928 3.15223 27.4625C5.41332 28.0669 14.5094 28.0669 14.5094 28.0669C14.5094 28.0669 23.5764 28.0669 25.8601 27.4625C26.4624 27.2935 27.0112 26.9724 27.4535 26.5301C27.8958 26.0878 28.2169 25.5391 28.3859 24.9367C28.8018 22.634 29.0048 20.2922 28.9903 17.9514C29.0048 15.5951 28.8064 13.2497 28.3859 10.9325ZM11.6057 22.2896V13.5941L19.172 17.9514L11.6057 22.2896Z" fill="#3C8AC9"/>
</svg>
