<svg width="32" height="32" viewBox="0 0 32 32" fill="none" xmlns="http://www.w3.org/2000/svg">
<path d="M29.8839 15.582C26.8883 10.0442 21.635 6.69312 15.8217 6.69312C10.0083 6.69312 4.7461 10.0442 1.77721 15.582L1.52832 15.9998L1.75943 16.4264C4.75499 21.9642 10.0083 25.3153 15.8217 25.3153C21.635 25.3153 26.8972 22.0087 29.8839 16.4264L30.115 15.9998L29.8839 15.582ZM15.8217 23.4931C10.8172 23.4931 6.22165 20.702 3.55499 15.9998C6.22165 11.2976 10.8172 8.50645 15.8217 8.50645C20.8261 8.50645 25.3683 11.3064 28.0794 15.9998C25.3683 20.702 20.8172 23.4931 15.8217 23.4931Z" fill="#667995"/>
<path d="M16.0806 9.92887C14.8754 9.93767 13.6998 10.3034 12.7023 10.98C11.7049 11.6565 10.9302 12.6135 10.4763 13.73C10.0224 14.8465 9.90954 16.0725 10.152 17.2531C10.3944 18.4337 10.9813 19.516 11.8385 20.3633C12.6957 21.2106 13.7848 21.7848 14.9681 22.0135C16.1515 22.2422 17.3761 22.1151 18.4873 21.6482C19.5984 21.1813 20.5463 20.3956 21.2112 19.3903C21.876 18.385 22.2281 17.2052 22.2228 16C22.2194 15.1977 22.0576 14.404 21.7468 13.6644C21.436 12.9247 20.9823 12.2537 20.4117 11.6897C19.8411 11.1257 19.1648 10.6798 18.4216 10.3777C17.6784 10.0755 16.8829 9.92302 16.0806 9.92887ZM16.0806 20.3467C15.2293 20.3379 14.3995 20.0777 13.6956 19.5989C12.9916 19.1201 12.4448 18.444 12.1239 17.6554C11.8029 16.8668 11.7221 16.001 11.8917 15.1667C12.0612 14.3324 12.4734 13.5667 13.0767 12.966C13.6799 12.3652 14.4472 11.956 15.2823 11.7899C16.1173 11.6238 16.9827 11.7081 17.77 12.0323C18.5572 12.3564 19.2311 12.906 19.7071 13.6119C20.183 14.3178 20.4398 15.1486 20.4451 16C20.4474 16.573 20.336 17.1407 20.1173 17.6703C19.8986 18.1999 19.5769 18.6808 19.1709 19.0851C18.765 19.4895 18.2827 19.8092 17.7523 20.0257C17.2218 20.2423 16.6536 20.3514 16.0806 20.3467Z" fill="#667995"/>
</svg>
