<svg width="55" height="55" viewBox="0 0 55 55" fill="none" xmlns="http://www.w3.org/2000/svg">
<path d="M3.61109 18.4302L2.34008 20.5691L6.93086 25.1599L9.06984 23.888C9.34227 24.0144 9.61812 24.1295 9.89141 24.2318L10.5041 26.6406H16.9967L17.6095 24.2327C17.8827 24.1304 18.1586 24.0161 18.431 23.8889L20.57 25.1608L25.1608 20.57L23.8898 18.431C24.0161 18.1586 24.1313 17.8836 24.2335 17.6095L26.6406 16.9959V10.5033L24.2327 9.89055C24.1304 9.61641 24.0152 9.34141 23.8889 9.06812L25.1599 6.92914L20.5691 2.33836L18.4302 3.61023C18.1577 3.48391 17.8819 3.36875 17.6086 3.26648L16.9959 0.859375H10.5033L9.89141 3.26734C9.61812 3.36961 9.34227 3.48391 9.06984 3.61109L6.93086 2.33922L2.34008 6.93L3.61109 9.06898C3.48477 9.34227 3.36961 9.61641 3.26734 9.89141L0.859375 10.5041V16.9967L3.26734 17.6095C3.36961 17.8836 3.48477 18.1577 3.61109 18.4302ZM2.57812 11.8396L4.60109 11.3248L4.74547 10.8711C4.8993 10.3916 5.10297 9.9043 5.35133 9.42477L5.57047 9.00109L4.49969 7.2007L7.2007 4.49969L9.00109 5.57047L9.42391 5.35219C9.90516 5.10383 10.3916 4.90102 10.8728 4.74719L11.3266 4.60195L11.8396 2.57812H15.6595L16.1734 4.60109L16.6272 4.74633C17.1084 4.90016 17.5948 5.10297 18.0761 5.35133L18.4989 5.56961L20.2993 4.49883L23.0003 7.19984L21.9295 9.00023L22.1487 9.42391C22.397 9.9043 22.6007 10.3907 22.7545 10.8702L22.8989 11.324L24.9219 11.8396V15.6595L22.8989 16.1743L22.7545 16.628C22.6007 17.1084 22.397 17.5948 22.1495 18.0744L21.9295 18.498L23.0003 20.2993L20.2993 23.0003L18.4989 21.9295L18.0761 22.1478C17.5948 22.3962 17.1084 22.599 16.6272 22.7528L16.1734 22.898L15.6604 24.9219H11.8405L11.3266 22.8989L10.8728 22.7537C10.3916 22.5998 9.90516 22.397 9.42391 22.1487L9.00109 21.9304L7.2007 23.0012L4.49969 20.3002L5.57047 18.4989L5.35047 18.0752C5.10297 17.5957 4.8993 17.1093 4.74547 16.6289L4.60109 16.1752L2.57812 15.6604V11.8396Z" fill="#3C8AC9"/>
<path d="M13.75 21.4844C18.0151 21.4844 21.4844 18.0142 21.4844 13.75C21.4844 9.48578 18.0151 6.01562 13.75 6.01562C9.48492 6.01562 6.01562 9.48578 6.01562 13.75C6.01562 18.0142 9.48492 21.4844 13.75 21.4844ZM13.75 7.73438C17.0663 7.73438 19.7656 10.4328 19.7656 13.75C19.7656 17.0672 17.0663 19.7656 13.75 19.7656C10.4337 19.7656 7.73438 17.0672 7.73438 13.75C7.73438 10.4328 10.4337 7.73438 13.75 7.73438Z" fill="#3C8AC9"/>
<path d="M49.8438 45.5469H25.5784L21.01 47.8311C20.2426 48.2144 19.7656 48.9861 19.7656 49.8438C19.7656 50.7014 20.2426 51.4731 21.0091 51.8564L25.5784 54.1406H49.8438C52.213 54.1406 54.1406 52.213 54.1406 49.8438C54.1406 47.4745 52.213 45.5469 49.8438 45.5469ZM26.6406 50.7031H47.2656V52.4219H26.6406V50.7031ZM47.2656 48.9844H26.6406V47.2656H47.2656V48.9844ZM21.4844 49.8438C21.4844 49.6409 21.597 49.4596 21.7783 49.3685L24.9219 47.7967V51.8908L21.7783 50.319C21.597 50.2279 21.4844 50.0466 21.4844 49.8438ZM49.8438 52.4219H48.9844V47.2656H49.8438C51.2652 47.2656 52.4219 48.4223 52.4219 49.8438C52.4219 51.2652 51.2652 52.4219 49.8438 52.4219Z" fill="#3C8AC9"/>
<path d="M45.5469 12.8906H45.4248C45.0407 11.4125 43.707 10.3125 42.1094 10.3125C40.5118 10.3125 39.178 11.4125 38.7939 12.8906H28.3594V14.6094H38.7939C39.178 16.0875 40.5118 17.1875 42.1094 17.1875C43.707 17.1875 45.0407 16.0875 45.4248 14.6094H45.5469C49.3376 14.6094 52.4219 17.6937 52.4219 21.4844V26.6406C52.4219 30.4313 49.3376 33.5156 45.5469 33.5156H42.8467C42.4626 32.0375 41.1288 30.9375 39.5312 30.9375C37.9337 30.9375 36.5999 32.0375 36.2158 33.5156H30.8155C30.4313 32.0375 29.0976 30.9375 27.5 30.9375C25.9024 30.9375 24.5687 32.0375 24.1845 33.5156H18.7842C18.4001 32.0375 17.0663 30.9375 15.4688 30.9375C13.8712 30.9375 12.5374 32.0375 12.1533 33.5156H9.45312C4.71453 33.5156 0.859375 37.3708 0.859375 42.1094C0.859375 46.848 4.71453 50.7031 9.45312 50.7031H18.0469V48.9844H9.45312C5.66242 48.9844 2.57812 45.9001 2.57812 42.1094C2.57812 38.3187 5.66242 35.2344 9.45312 35.2344H12.1533C12.5374 36.7125 13.8712 37.8125 15.4688 37.8125C17.0663 37.8125 18.4001 36.7125 18.7842 35.2344H24.1845C24.5687 36.7125 25.9024 37.8125 27.5 37.8125C29.0976 37.8125 30.4313 36.7125 30.8155 35.2344H36.2158C36.5999 36.7125 37.9337 37.8125 39.5312 37.8125C41.1288 37.8125 42.4626 36.7125 42.8467 35.2344H45.5469C50.2855 35.2344 54.1406 31.3792 54.1406 26.6406V21.4844C54.1406 16.7458 50.2855 12.8906 45.5469 12.8906ZM42.1094 15.4688C41.1615 15.4688 40.3906 14.6979 40.3906 13.75C40.3906 12.8021 41.1615 12.0312 42.1094 12.0312C43.0573 12.0312 43.8281 12.8021 43.8281 13.75C43.8281 14.6979 43.0573 15.4688 42.1094 15.4688ZM15.4688 36.0938C14.5209 36.0938 13.75 35.3229 13.75 34.375C13.75 33.4271 14.5209 32.6562 15.4688 32.6562C16.4166 32.6562 17.1875 33.4271 17.1875 34.375C17.1875 35.3229 16.4166 36.0938 15.4688 36.0938ZM27.5 36.0938C26.5521 36.0938 25.7812 35.3229 25.7812 34.375C25.7812 33.4271 26.5521 32.6562 27.5 32.6562C28.4479 32.6562 29.2188 33.4271 29.2188 34.375C29.2188 35.3229 28.4479 36.0938 27.5 36.0938ZM39.5312 36.0938C38.5834 36.0938 37.8125 35.3229 37.8125 34.375C37.8125 33.4271 38.5834 32.6562 39.5312 32.6562C40.4791 32.6562 41.25 33.4271 41.25 34.375C41.25 35.3229 40.4791 36.0938 39.5312 36.0938Z" fill="#3C8AC9"/>
<path d="M28.3594 18.9062H40.3906V20.625H28.3594V18.9062Z" fill="#3C8AC9"/>
<path d="M28.3594 22.3438H40.3906V24.0625H28.3594V22.3438Z" fill="#3C8AC9"/>
<path d="M35.2344 25.7812H36.9531V27.5H35.2344V25.7812Z" fill="#3C8AC9"/>
<path d="M31.7969 25.7812H33.5156V27.5H31.7969V25.7812Z" fill="#3C8AC9"/>
<path d="M38.6719 25.7812H40.3906V27.5H38.6719V25.7812Z" fill="#3C8AC9"/>
<path d="M28.3594 25.7812H30.0781V27.5H28.3594V25.7812Z" fill="#3C8AC9"/>
<path d="M14.6094 41.25H16.3281V42.9688H14.6094V41.25Z" fill="#3C8AC9"/>
<path d="M11.1719 41.25H12.8906V42.9688H11.1719V41.25Z" fill="#3C8AC9"/>
<path d="M4.29688 41.25H6.01562V42.9688H4.29688V41.25Z" fill="#3C8AC9"/>
<path d="M7.73438 41.25H9.45312V42.9688H7.73438V41.25Z" fill="#3C8AC9"/>
</svg>
