<svg width="55" height="55" viewBox="0 0 55 55" fill="none" xmlns="http://www.w3.org/2000/svg">
<path d="M50.4167 2.75H4.58333C2.05333 2.75298 0.00297917 4.80333 0 7.33333V38.5C0.00297917 41.03 2.05333 43.0804 4.58333 43.0833H22.3502L19.7569 48.2698C19.0776 49.6282 19.6279 51.2801 20.9863 51.9595C21.3682 52.1505 21.7893 52.25 22.2163 52.25H32.7837C34.3025 52.25 35.5337 51.0187 35.5336 49.4999C35.5336 49.0728 35.4341 48.6517 35.2431 48.2698L32.6498 43.0833H50.4167C52.9467 43.0804 54.997 41.03 55 38.5V7.33333C54.997 4.80333 52.9467 2.75298 50.4167 2.75ZM33.6032 49.0903C33.8295 49.5431 33.6458 50.0937 33.193 50.32C33.0659 50.3834 32.9258 50.4166 32.7837 50.4167H22.2163C21.7101 50.4164 21.2999 50.0058 21.3001 49.4995C21.3002 49.3575 21.3334 49.2173 21.3968 49.0903L24.3998 43.0833H30.6002L33.6032 49.0903ZM53.1667 38.5C53.1667 40.0188 51.9355 41.25 50.4167 41.25H4.58333C3.06453 41.25 1.83333 40.0188 1.83333 38.5V7.33333C1.83333 5.81453 3.06453 4.58333 4.58333 4.58333H50.4167C51.9355 4.58333 53.1667 5.81453 53.1667 7.33333V38.5Z" fill="#3C8AC9"/>
<path d="M24.75 6.41675H6.41667C5.91044 6.41675 5.5 6.82719 5.5 7.33341V16.5001C5.5 17.0063 5.91044 17.4167 6.41667 17.4167H24.75C25.2562 17.4167 25.6667 17.0063 25.6667 16.5001V7.33341C25.6667 6.82719 25.2562 6.41675 24.75 6.41675ZM23.8333 15.5834H7.33333V8.25008H23.8333V15.5834Z" fill="#3C8AC9"/>
<path d="M50.317 12.9719C50.076 12.7298 49.8007 12.5244 49.5 12.3622V7.33341C49.5 6.82719 49.0896 6.41675 48.5833 6.41675H30.25C29.7438 6.41675 29.3333 6.82719 29.3333 7.33341V16.5001C29.3333 17.0063 29.7438 17.4167 30.25 17.4167H40.8705L39.0372 19.2501H30.25C29.7438 19.2501 29.3333 19.6605 29.3333 20.1667C29.3333 20.673 29.7438 21.0834 30.25 21.0834H37.2038L33.5372 24.7501H6.41667C5.91044 24.7501 5.5 25.1605 5.5 25.6667V34.8334C5.5 35.3396 5.91044 35.7501 6.41667 35.7501H24.7005L24.09 37.5834H19.25C18.7438 37.5834 18.3333 37.9938 18.3333 38.5001C18.3333 39.0063 18.7438 39.4167 19.25 39.4167H24.75C24.8484 39.4166 24.9462 39.4008 25.0397 39.37L30.5397 37.5367C30.5516 37.5367 30.5617 37.5247 30.5727 37.5202C30.5837 37.5156 30.6103 37.5018 30.6295 37.4927C30.7174 37.4531 30.7982 37.3996 30.8687 37.3341C30.8779 37.3258 30.8898 37.3231 30.8981 37.3148L32.4628 35.7501H48.5833C49.0896 35.7501 49.5 35.3396 49.5 34.8334V25.6667C49.5 25.1605 49.0896 24.7501 48.5833 24.7501H43.4628L50.3058 17.9072C51.6717 16.5474 51.6767 14.3379 50.317 12.9719ZM31.1667 15.5834V8.25008H47.6667V11.9323C46.7921 11.9649 45.9621 12.3267 45.3429 12.9452L42.7038 15.5834H31.1667ZM25.9151 32.3822C25.8522 32.4505 25.8002 32.5281 25.7611 32.6123C25.751 32.6334 25.74 32.6517 25.7318 32.6737C25.7235 32.6957 25.718 32.6967 25.7143 32.7104L25.3119 33.9167H7.33333V26.5834H31.7038L25.9352 32.352C25.9261 32.3612 25.9233 32.3731 25.9151 32.3822ZM26.1992 37.0508L26.9839 34.6968L28.5523 36.2662L26.1992 37.0508ZM47.6667 26.5834V33.9167H34.2962L41.6295 26.5834H47.6667ZM30.25 35.3706L27.8795 33.0001L44.9167 15.9629L47.2872 18.3334L30.25 35.3706ZM49.0096 16.6119L48.5833 17.0372L46.2128 14.6667L46.6391 14.2405C47.2945 13.5865 48.356 13.5875 49.0102 14.2429C49.3238 14.5571 49.4999 14.9828 49.5 15.4267C49.5011 15.8714 49.3246 16.2981 49.0096 16.6119Z" fill="#3C8AC9"/>
</svg>
