<svg width="20" height="20" viewBox="0 0 20 20" fill="none" xmlns="http://www.w3.org/2000/svg">
<path d="M13.6 5.3998V3.0998C13.6 2.48981 13.4017 1.90479 13.0487 1.47346C12.6957 1.04213 12.2169 0.799805 11.7177 0.799805H2.6824C2.18317 0.799805 1.70439 1.04213 1.35138 1.47346C0.998368 1.90479 0.800049 2.48981 0.800049 3.0998V16.8998C0.800049 17.5098 0.998368 18.0948 1.35138 18.5261C1.70439 18.9575 2.18317 19.1998 2.6824 19.1998H11.7177C12.2169 19.1998 12.6957 18.9575 13.0487 18.5261C13.4017 18.0948 13.6 17.5098 13.6 16.8998V14.5998" stroke="#3C8AC9" stroke-width="1.3" stroke-linecap="round" stroke-linejoin="round"/>
<path d="M16 5.6001L19.2 9.2001L16 12.8001" stroke="#3C8AC9" stroke-width="1.3" stroke-linecap="round" stroke-linejoin="round"/>
<path d="M7.19995 9.6001H19.1999" stroke="#3C8AC9" stroke-width="1.3" stroke-linecap="round" stroke-linejoin="round"/>
</svg>
