<svg width="64" height="64" viewBox="0 0 64 64" fill="none" xmlns="http://www.w3.org/2000/svg">
<g clip-path="url(#clip0)">
<path d="M63.2711 59.7523L47.6519 44.1335C51.5343 39.4649 53.8733 33.4697 53.8733 26.9375C53.8733 12.0841 41.7896 0 26.9368 0C12.0838 0 0 12.0841 0 26.9375C0 41.7899 12.0838 53.873 26.9368 53.873C33.4687 53.873 39.4642 51.5344 44.1329 47.652L59.7523 63.2711C60.238 63.7571 60.875 64 61.5117 64C62.1483 64 62.7853 63.7571 63.2714 63.2711C64.2431 62.2993 64.2431 60.7241 63.2711 59.7523ZM4.97657 26.9375C4.97657 14.8282 14.8278 4.97657 26.9368 4.97657C39.0455 4.97657 48.8964 14.8282 48.8964 26.9375C48.8964 39.0458 39.0455 48.8964 26.9368 48.8964C14.8278 48.8964 4.97657 39.0458 4.97657 26.9375Z" fill="#667995"/>
</g>
<defs>
<clipPath id="clip0">
<rect width="64" height="64" fill="white"/>
</clipPath>
</defs>
</svg>
