<svg width="21" height="21" viewBox="0 0 21 21" fill="none" xmlns="http://www.w3.org/2000/svg">
<path d="M9.38696 16.5342C8.41821 16.5342 7.62915 17.3232 7.62915 18.292C7.62915 19.2607 8.41821 20.0498 9.38696 20.0498C10.3557 20.0498 11.1448 19.2607 11.1448 18.292C11.1448 17.3232 10.3557 16.5342 9.38696 16.5342ZM9.38696 19.0693C8.95727 19.0693 8.60962 18.7217 8.60962 18.292C8.60962 17.8623 8.95727 17.5146 9.38696 17.5146C9.81665 17.5146 10.1643 17.8623 10.1643 18.292C10.1643 18.7217 9.81274 19.0693 9.38696 19.0693Z" fill="#3C8AC9"/>
<path d="M15.5547 16.5342C14.5859 16.5342 13.7969 17.3232 13.7969 18.292C13.7969 19.2607 14.5859 20.0498 15.5547 20.0498C16.5234 20.0498 17.3125 19.2607 17.3125 18.292C17.3164 17.3232 16.5273 16.5342 15.5547 16.5342ZM15.5547 19.0693C15.125 19.0693 14.7773 18.7217 14.7773 18.292C14.7773 17.8623 15.125 17.5146 15.5547 17.5146C15.9844 17.5146 16.332 17.8623 16.332 18.292C16.332 18.7217 15.9844 19.0693 15.5547 19.0693Z" fill="#3C8AC9"/>
<path d="M20.7779 4.28516C20.5904 4.05469 20.3131 3.92188 20.0162 3.92188H4.72322L4.41463 2.42188C4.34822 2.10938 4.13729 1.84766 3.84432 1.71875L1.68807 0.781254C1.43807 0.679691 1.149 0.792972 1.03963 1.04297C0.930255 1.29297 1.04744 1.58204 1.29354 1.6875L3.44979 2.625L5.82479 14.1602C5.91854 14.6133 6.32479 14.9453 6.78572 14.9453H18.5513C18.8209 14.9453 19.0435 14.7266 19.0435 14.4531C19.0435 14.1836 18.8248 13.9609 18.5513 13.9609H6.78963L6.50057 12.5586H18.6451C19.1099 12.5586 19.5123 12.2305 19.606 11.7734L20.981 5.10547C21.0396 4.81641 20.9654 4.51563 20.7779 4.28516ZM18.6451 11.5742H6.29744L4.92244 4.90625H20.0162L18.6451 11.5742Z" fill="#3C8AC9"/>
</svg>
