<svg width="155" height="49" viewBox="0 0 155 49" fill="none" xmlns="http://www.w3.org/2000/svg">
<g clip-path="url(#clip0)">
<path d="M75.7549 48.9662C68.3667 48.696 60.7769 46.8862 53.0176 43.5444C49.8599 42.1844 46.5202 40.4997 43.1217 38.5525C40.8804 37.2682 35.7496 34.1139 35.4639 33.8446C35.2842 33.6751 35.2139 33.5162 35.2139 33.2797C35.2139 32.842 35.527 32.5293 35.9647 32.53C36.1916 32.5304 36.2464 32.5544 36.7822 32.888C38.9324 34.2267 41.9066 35.7431 44.8047 36.9783C58.3017 42.7308 74.2919 44.7508 89.6413 42.6424C100.124 41.2025 110.2 37.8333 118.06 33.1399C119.194 32.4627 119.298 32.4271 119.638 32.603C120.107 32.8459 120.209 33.4405 119.843 33.8043C119.7 33.9473 119.523 34.0608 116.943 35.6698C110.063 39.9609 104.507 42.794 98.7232 44.9616C90.9433 47.8772 83.1469 49.2365 75.7549 48.9662Z" fill="#9DAAC1"/>
<path fill-rule="evenodd" clip-rule="evenodd" d="M1.72261e-05 0.757345C1.72261e-05 0.757345 0.145486 1.21727 0.286216 2.52435C0.454914 5.78047 0.463865 8.47945 0.48336 11.4889C0.5222 13.8128 0.49949 16.0772 0.479431 18.2577C0.465938 19.7344 0.455778 20.5393 0.455778 21.8819C0.455778 25.8771 0.140293 28.6773 0.140293 28.6773C0.140293 28.6773 3.08091 29.3129 7.51946 29.3129C11.9596 29.3129 16.6706 27.7696 19.389 25.454C22.1067 23.1386 24.5526 19.8242 24.5526 13.8775C24.5526 7.93061 22.016 4.66171 18.6642 2.52837C15.3114 0.394051 10.1926 -0.0138702 6.25111 0.16741C2.31062 0.349424 0.136376 0.757345 1.72261e-05 0.757345ZM154.38 23.1386L148.45 21.7316C146.894 23.2744 145.213 24.041 143.054 24.001C138.61 23.9194 136.401 21.2938 135.579 16.9642H154.695C154.967 15.4207 155.056 13.7864 154.966 12.243C154.785 9.12556 153.829 6.25628 151.886 3.79937C149.962 1.36694 146.653 0.0912933 142.561 0.121805C138.719 0.151012 135.579 1.47055 133.093 4.11738C130.757 6.6039 129.358 10.3958 129.423 15.3299C129.486 20.0173 130.676 23.5073 133.591 26.362C135.62 28.3495 138.348 29.4109 141.926 29.4033C148.744 29.1972 151.577 26.995 154.38 23.1386ZM149.526 12.1527H135.804C136.046 8.59591 139.295 5.28323 142.738 5.29963C146.301 5.31603 149.362 7.87023 149.526 12.1527ZM89.354 5.50374C93.8919 5.50374 97.5719 9.62069 97.5719 14.6973C97.5719 19.774 93.8919 23.8911 89.354 23.8911C84.8176 23.8911 81.1369 19.774 81.1369 14.6973C81.1369 9.62069 84.8176 5.50374 89.354 5.50374ZM89.5307 1.14441e-05C97.1457 1.14441e-05 103.32 6.6305 103.32 14.6973C103.32 22.7642 89.354 29.306 89.354 29.306C89.354 29.306 75.5653 22.7642 75.5653 14.6973C75.5653 6.6305 81.9173 1.14441e-05 89.5307 1.14441e-05ZM104.515 28.314H110.671V9.65512C116.304 14.6039 120.454 20.8239 122.946 28.314L128.234 28.3458V0.938627L122.339 0.938635L122.333 14.3661C120.487 11.2732 118.228 8.72941 116.006 6.53651C113.78 4.34019 111.973 2.48045 109.72 0.938635H104.515V28.314ZM50.7362 28.314H56.7159V9.65512C62.3483 14.6039 66.4112 20.8239 68.9025 28.314H74.2477V0.938623H68.2674V14.1474C64.7928 9.13037 60.5834 4.62402 55.7653 0.938623H50.7362V28.314ZM33.6585 0.938623H39.457C45.0874 7.18135 48.5339 16.2611 49.6951 28.314H43.3977C43.2341 26.2207 42.9789 24.2968 42.6328 22.365H30.2017C29.8565 24.2937 29.6036 26.2174 29.4455 28.314H23.3298C24.433 16.1885 28.1286 6.80655 33.6585 0.938623ZM41.4724 17.2373C40.1207 12.9107 38.5113 9.35146 36.3332 6.06871C34.169 9.36419 32.4764 13.0795 31.2801 17.2373H41.4724ZM6.30388 5.52414C6.30388 5.52414 7.51948 5.47853 9.01503 5.47853C10.5103 5.47853 13.7764 5.75102 16.1768 8.11188C18.5775 10.4728 18.623 13.1509 18.623 15.0127C18.623 16.874 17.9846 20.9141 14.0431 22.7298C10.1024 24.5463 6.25862 23.8653 6.25862 23.8653L6.30388 5.52414Z" fill="#9DAAC1"/>
</g>
<defs>
<clipPath id="clip0">
<rect width="155" height="49" fill="white"/>
</clipPath>
</defs>
</svg>
