<svg width="27" height="26" viewBox="0 0 27 26" fill="none" xmlns="http://www.w3.org/2000/svg">
<g clip-path="url(#clip0)">
<path d="M6.13014 26V8.45785H0.342448V26H6.13014ZM3.23704 6.06133C5.25531 6.06133 6.51159 4.71429 6.51159 3.03095C6.47399 1.30965 5.25539 0 3.27534 0C1.2956 0 0.000976562 1.30967 0.000976562 3.03095C0.000976562 4.71437 1.25694 6.06133 3.19926 6.06133H3.23686H3.23704ZM9.33361 26H15.1213V16.2036C15.1213 15.6793 15.1589 15.1556 15.3117 14.7808C15.7302 13.7333 16.6825 12.6484 18.2813 12.6484C20.3756 12.6484 21.2134 14.257 21.2134 16.6152V25.9999H27.0008V15.9414C27.0008 10.5531 24.1454 8.04601 20.3375 8.04601C17.2152 8.04601 15.8444 9.80419 15.0828 11.0017H15.1214V8.45749H9.33374C9.4097 10.1035 9.33374 25.9997 9.33374 25.9997L9.33361 26Z" fill="white"/>
</g>
<defs>
<clipPath id="clip0">
<rect width="27" height="26" fill="white"/>
</clipPath>
</defs>
</svg>
