<svg width="25" height="26" viewBox="0 0 25 26" fill="none" xmlns="http://www.w3.org/2000/svg">
<g clip-path="url(#clip0)">
<path d="M25.0003 6.32309C24.0481 6.74013 23.0119 7.04027 21.9445 7.15716C23.0527 6.48876 23.8825 5.43279 24.2784 4.18738C23.2385 4.81542 22.0994 5.25582 20.9114 5.48903C20.4149 4.95013 19.8145 4.52082 19.1474 4.22784C18.4803 3.93487 17.761 3.78452 17.0342 3.78615C14.0936 3.78615 11.7287 6.2062 11.7287 9.17598C11.7287 9.59301 11.7785 10.01 11.8594 10.4113C7.45624 10.1775 3.52922 8.04177 0.91846 4.77186C0.442752 5.59681 0.193465 6.53612 0.196534 7.49205C0.196534 9.36238 1.13317 11.0116 2.56146 11.9815C1.71975 11.9478 0.897744 11.7129 0.162305 11.2959V11.3622C0.162305 13.9813 1.98579 16.1518 4.41607 16.651C3.95975 16.7713 3.49034 16.8329 3.01889 16.8342C2.67349 16.8342 2.34675 16.7995 2.01691 16.7521C2.68904 18.8878 4.64633 20.439 6.97703 20.4896C5.15355 21.9397 2.86953 22.7927 0.389462 22.7927C-0.0555176 22.7927 -0.466269 22.7769 -0.892578 22.7264C1.4599 24.2587 4.25114 25.1433 7.25709 25.1433C17.0155 25.1433 22.3553 16.9353 22.3553 9.81101C22.3553 9.57721 22.3553 9.34342 22.3397 9.10963C23.3728 8.34191 24.2784 7.39095 25.0003 6.32309Z" fill="white"/>
</g>
<defs>
<clipPath id="clip0">
<rect width="25" height="26" fill="white"/>
</clipPath>
</defs>
</svg>
