<svg width="26" height="26" viewBox="0 0 26 26" fill="none" xmlns="http://www.w3.org/2000/svg">
<g clip-path="url(#clip0)">
<path d="M25.8912 15.8727L21.5108 8.57143L25.442 7.47943C25.8474 7.36685 26.0846 6.94699 25.9721 6.54165C25.8595 6.13632 25.4395 5.89896 25.0343 6.0116L20.1475 7.36898L20.1465 7.36929L13.7618 9.14277V0.762695C13.7618 0.342023 13.4207 0.000976562 13 0.000976562C12.5794 0.000976562 12.2383 0.342023 12.2383 0.762695V9.56593L5.46191 11.4482L5.46084 11.4484L0.558066 12.8103C0.152679 12.9229 -0.0845708 13.3427 0.0279604 13.7481C0.121652 14.0852 0.427812 14.3061 0.761445 14.3061C0.828933 14.3061 0.897589 14.2971 0.965738 14.2781L4.02206 13.4292L0.108855 19.952C0.0378627 20.0703 0.000284622 20.2058 0.000284622 20.3438C0.000284622 23.463 2.53798 26.0006 5.65716 26.0006C8.77645 26.0006 11.3141 23.463 11.3141 20.3438C11.3141 20.2058 11.2766 20.0703 11.2055 19.952L6.82503 12.6506L18.7077 9.35001L14.7945 15.8727C14.7235 15.9911 14.6859 16.1266 14.6859 16.2646C14.6859 19.3838 17.2236 21.9214 20.3428 21.9214C21.8538 21.9214 23.2743 21.333 24.3429 20.2645C25.4114 19.196 25.9998 17.7755 25.9997 16.2645C25.9998 16.1265 25.9622 15.991 25.8912 15.8727ZM9.20718 19.5821H2.10725L5.65716 13.665L9.20718 19.5821ZM20.3428 9.58584L23.8929 15.5028H16.7928L20.3428 9.58584Z" fill="#3C8AC9"/>
</g>
<defs>
<clipPath id="clip0">
<rect width="26" height="26" fill="white"/>
</clipPath>
</defs>
</svg>
