<svg width="20" height="20" viewBox="0 0 20 20" fill="none" xmlns="http://www.w3.org/2000/svg">
<g clip-path="url(#clip0)">
<path d="M16.0428 20H12.7096C12.3646 20 12.0846 19.72 12.0846 19.375V13.9584C12.0846 13.8433 11.9913 13.7501 11.8762 13.7501H8.1263C8.0114 13.7501 7.91802 13.8433 7.91802 13.9584V19.375C7.91802 19.72 7.63802 20 7.29303 20H3.95982C3.1557 20 2.50141 19.3459 2.50141 18.5416V10.8335H1.04316C0.468984 10.8335 0.00146484 10.3659 0.00146484 9.79176C0.00146484 9.51604 0.114072 9.24597 0.309839 9.0502L9.56883 0.173741C9.81052 -0.0580356 10.1921 -0.0580356 10.4338 0.173741L19.6837 9.04013C19.8886 9.24597 20.001 9.51604 20.001 9.79176C20.001 10.3659 19.5337 10.8335 18.9595 10.8335H17.5011V18.5416C17.5011 19.3459 16.847 20 16.0428 20ZM13.3346 18.75H16.0428C16.1562 18.75 16.2511 18.6549 16.2511 18.5416V10.2085C16.2511 9.86348 16.5311 9.58348 16.8761 9.58348H18.4436L10.0013 1.49116L1.55905 9.58348H3.1264C3.47139 9.58348 3.75139 9.86348 3.75139 10.2085V18.5416C3.75139 18.6549 3.84645 18.75 3.95982 18.75H6.66804V13.9584C6.66804 13.1543 7.32217 12.5001 8.1263 12.5001H11.8762C12.6805 12.5001 13.3346 13.1543 13.3346 13.9584V18.75Z" fill="#667995"/>
</g>
<defs>
<clipPath id="clip0">
<rect width="20" height="20" fill="white"/>
</clipPath>
</defs>
</svg>
